<svg xmlns="http://www.w3.org/2000/svg" xmlns:xlink="http://www.w3.org/1999/xlink" width="597" height="500" viewBox="0 0 597 500"><defs><path id="2ovka" d="M919.58 406.39V273.97h249.67v132.42z"/><path id="2ovkb" d="M1092.99 339.92V206.07h245.85v133.85z"/><path id="2ovkc" d="M854 611.54V437.95h103v173.59z"/><path id="2ovkd" d="M1040.63 278.84a12 12 0 0 1 12-12h169.75a12 12 0 0 1 12 12v253.33a12 12 0 0 1-12 12h-169.75a12 12 0 0 1-12-12z"/><path id="2ovko" d="M900 442V237h293v205zm269.25-49.61V259.97H919.58v132.42z"/><path id="2ovks" d="M1073 378V169h290v209zm265.84-52.08V192.07h-245.85v133.85z"/><path id="2ovkv" d="M1313.42 583.96c0-23.3 19.39-95.43 45.55-134.9"/><path id="2ovkw" d="M1330.48 445.02c-5.86-10.14-8-19.87-4.78-21.73 3.22-1.86 10.57 4.86 16.43 15 5.86 10.15 8 19.88 4.78 21.74-3.22 1.86-10.57-4.86-16.43-15z"/><path id="2ovky" d="M1374.42 456.59c11.7-.41 21.3 2.27 21.43 5.98.13 3.71-9.25 7.05-20.96 7.46-11.7.41-21.3-2.27-21.43-5.98-.13-3.71 9.25-7.05 20.96-7.46z"/><path id="2ovkA" d="M1362.24 487.35c11.71.2 21.16 3.38 21.1 7.09-.07 3.71-9.62 6.56-21.33 6.35-11.71-.2-21.16-3.38-21.1-7.09.07-3.71 9.62-6.56 21.33-6.35z"/><path id="2ovkC" d="M1352.04 517.19c11.71.2 21.16 3.38 21.1 7.09-.07 3.71-9.62 6.56-21.33 6.35-11.71-.2-21.16-3.38-21.1-7.09.07-3.71 9.62-6.56 21.33-6.35z"/><path id="2ovkE" d="M1367.04 423.17c6.38-9.83 14.08-16.15 17.2-14.13 3.11 2.02.46 11.63-5.91 21.45-6.38 9.83-14.08 16.15-17.2 14.13-3.11-2.02-.46-11.63 5.91-21.45z"/><path id="2ovkG" d="M1314.55 478.62c-7.69-8.84-11.64-17.98-8.84-20.42 2.8-2.43 11.3 2.76 18.99 11.6 7.69 8.84 11.64 17.98 8.84 20.42-2.8 2.43-11.3-2.76-18.99-11.6z"/><path id="2ovkI" d="M1302.5 511.76c-8.56-8-13.45-16.67-10.92-19.39 2.54-2.71 11.53 1.56 20.1 9.55 8.57 8 13.46 16.67 10.93 19.39-2.54 2.71-11.53-1.56-20.1-9.55z"/><path id="2ovkK" d="M876.56 557.75c-4.8 4.24-23-4.24-30.23-17.4-7.22-13.15 6.17-17.84-12.05-38.88-18.22-21.05-29.92-29.11-18.86-63.8 11.06-34.7-4.22-53.97 15.97-63.02 20.19-9.06 31.81 20.98 29.5 47.4-2.32 26.43 2.42 31.9 22.17 29.17 19.74-2.74 3.1 36.05 3.1 44.51 0 8.47 11.97 24.2 9.48 36.03-2.48 11.83-14.3 21.75-19.08 26z"/><path id="2ovkM" d="M865.02 520.87c3.55-5.74 10.57-24.94 10.57-39.08"/><path id="2ovkN" d="M851.06 482.95c0-6.5-18.24-11.06-27.17-23.39"/><path id="2ovkO" d="M891.61 615.83c-1.21-6.02-4.39-29.65-13.6-57.3-14.59-43.76-37.21-100.91-37.21-139.5"/><path id="2ovkQ" d="M1253 585.5c0-1.38 18.36-2.5 41-2.5s41 1.12 41 2.5-18.36 2.5-41 2.5-41-1.12-41-2.5z"/><path id="2ovkR" d="M1277.88 581.97c0-17.45 14.58-71.44 34.27-100.99"/><path id="2ovkS" d="M1290.7 477.98c-4.38-7.6-5.97-14.89-3.55-16.28 2.42-1.4 7.94 3.62 12.32 11.22 4.39 7.6 5.98 14.89 3.56 16.28-2.42 1.4-7.94-3.62-12.32-11.22z"/><path id="2ovkU" d="M1323.76 486.6c8.77-.31 15.95 1.7 16.05 4.5.1 2.79-6.93 5.3-15.7 5.6-8.76.31-15.94-1.7-16.04-4.5-.1-2.79 6.93-5.3 15.7-5.6z"/><path id="2ovkW" d="M1314.6 509.62c8.78.15 15.85 2.54 15.8 5.34-.05 2.8-7.2 4.93-15.97 4.78-8.77-.15-15.84-2.54-15.79-5.34.05-2.8 7.2-4.93 15.97-4.78z"/><path id="2ovkY" d="M1306.93 531.96c8.77.15 15.84 2.54 15.79 5.34-.05 2.8-7.2 4.93-15.97 4.78-8.77-.15-15.84-2.54-15.79-5.34.05-2.8 7.2-4.93 15.97-4.78z"/><path id="2ovkaa" d="M1318.22 461.58c4.77-7.35 10.55-12.08 12.89-10.56 2.34 1.52.37 8.72-4.4 16.08-4.78 7.35-10.56 12.08-12.9 10.56-2.34-1.52-.37-8.72 4.4-16.08z"/><path id="2ovkac" d="M1278.72 503.13c-5.75-6.62-8.7-13.47-6.6-15.3 2.11-1.84 8.49 2.04 14.24 8.66s8.7 13.47 6.6 15.3c-2.11 1.84-8.49-2.04-14.24-8.66z"/><path id="2ovkae" d="M1269.67 527.94c-6.42-5.98-10.07-12.49-8.16-14.53 1.9-2.04 8.65 1.15 15.06 7.13 6.42 5.98 10.07 12.49 8.16 14.53-1.9 2.04-8.65-1.15-15.06-7.13z"/><path id="2ovkag" d="M917.87 582.96c-1.54-.96-38.02-17.07-34.65-20.51 3.37-3.45 19.8-3.45 19.8-3.45s16.39 24.93 14.85 23.96z"/><path id="2ovkaj" d="M825 645V411h161v234zm124-39.46V431.95H846v173.59z"/><path id="2ovkam" d="M909.22 631.14c1.5-27.25-26.45-38.62-6.56-76.99 19.88-38.36 6.06-71.5 0-84.11"/><path id="2ovkan" d="M907.36 537.34c-3.47-1.66-9.84-6.32-13-13.53"/><path id="2ovkao" d="M896.69 586.81c-5.38-2.24-16.39-8.39-17.17-17.73"/><path id="2ovkap" d="M898.54 563.94c4.84 1.38 12.03.13 18.1-8.86"/><path id="2ovkaq" d="M912 494.43c3.16-2.5 9.3-12.4 8.82-21"/><path id="2ovkar" d="M896 651.4l143.3-55.4H1238l-106.31 71"/><path id="2ovkau" d="M1050 596.5c0-4.14 42.53-7.5 95-7.5s95 3.36 95 7.5c0 4.14-42.53 7.5-95 7.5s-95-3.36-95-7.5z"/><path id="2ovkav" d="M1049.01 281a70 70 0 0 1 70-70H1190a70 70 0 0 1 70 70v249a70 70 0 0 1-70 70h-70.99a70 70 0 0 1-70-70z"/><path id="2ovkax" d="M1031.78 281a70 70 0 0 1 70-70h70.99a70 70 0 0 1 70 70v249a70 70 0 0 1-70 70h-70.99a70 70 0 0 1-70-70z"/><path id="2ovkaz" d="M1082.08 239.62a3.49 3.49 0 0 1 3.49-3.49h103.87a3.49 3.49 0 0 1 0 6.98h-103.87a3.49 3.49 0 0 1-3.49-3.49z"/><path id="2ovkaB" d="M1117.48 572.09a19.55 19.55 0 1 1 39.1.01 19.55 19.55 0 0 1-39.1-.01z"/><path id="2ovkaG" d="M1049.95 499.48a20 20 0 0 1 20-20h135.12a20 20 0 0 1 20 20v13.05a20 20 0 0 1-20 20h-135.12a20 20 0 0 1-20-20z"/><path id="2ovkaI" d="M1056.93 506a19.55 19.55 0 1 1 39.1.02 19.55 19.55 0 0 1-39.1-.02z"/><path id="2ovkaJ" d="M1103.04 492.75a3.95 3.95 0 0 1 3.96-3.96h100.6a3.95 3.95 0 1 1 0 7.91H1107a3.95 3.95 0 0 1-3.96-3.96z"/><path id="2ovkaK" d="M1103.04 505.77a3.95 3.95 0 0 1 3.96-3.95h74.98a3.95 3.95 0 1 1 0 7.91H1107a3.95 3.95 0 0 1-3.95-3.96z"/><path id="2ovkaL" d="M1103.04 520.43a2.79 2.79 0 0 1 2.79-2.79h25.16a2.79 2.79 0 0 1 0 5.58h-25.16a2.79 2.79 0 0 1-2.79-2.79z"/><path id="2ovkaM" d="M1049.95 435.27a20 20 0 0 1 20-20h135.12a20 20 0 0 1 20 20v13.05a20 20 0 0 1-20 20h-135.12a20 20 0 0 1-20-20z"/><path id="2ovkaO" d="M1056.93 441.8a19.55 19.55 0 1 1 39.1.01 19.55 19.55 0 0 1-39.1-.01z"/><path id="2ovkaP" d="M1103.04 428.54a3.95 3.95 0 0 1 3.96-3.96h100.6a3.95 3.95 0 1 1 0 7.91H1107a3.95 3.95 0 0 1-3.96-3.96z"/><path id="2ovkaQ" d="M1103.04 441.56a3.95 3.95 0 0 1 3.96-3.95h74.98a3.95 3.95 0 1 1 0 7.91H1107a3.95 3.95 0 0 1-3.95-3.96z"/><path id="2ovkaR" d="M1103.04 456.22a2.79 2.79 0 0 1 2.79-2.79h25.16a2.79 2.79 0 0 1 0 5.58h-25.16a2.79 2.79 0 0 1-2.79-2.79z"/><path id="2ovkaS" d="M1049.95 301.26a20 20 0 0 1 20-20h135.12a20 20 0 0 1 20 20v13.05a20 20 0 0 1-20 20h-135.12a20 20 0 0 1-20-20z"/><path id="2ovkaU" d="M1056.93 307.79a19.55 19.55 0 1 1 39.1.01 19.55 19.55 0 0 1-39.1-.01z"/><path id="2ovkaV" d="M1103.04 294.52a3.95 3.95 0 0 1 3.96-3.95h100.6a3.95 3.95 0 1 1 0 7.91H1107a3.95 3.95 0 0 1-3.96-3.96z"/><path id="2ovkaW" d="M1103.04 307.56a3.95 3.95 0 0 1 3.96-3.96h74.98a3.95 3.95 0 1 1 0 7.91H1107a3.95 3.95 0 0 1-3.95-3.96z"/><path id="2ovkaX" d="M1103.04 322.21a2.79 2.79 0 0 1 2.79-2.79h25.16a2.79 2.79 0 0 1 0 5.58h-25.16a2.79 2.79 0 0 1-2.79-2.79z"/><path id="2ovkaY" d="M1022 364.08a20 20 0 0 1 20-20h135.12a20 20 0 0 1 20 20v13.05a20 20 0 0 1-20 20H1042a20 20 0 0 1-20-20z"/><path id="2ovkba" d="M1028.99 370.6a19.55 19.55 0 1 1 39.1.02 19.55 19.55 0 0 1-39.1-.01z"/><path id="2ovkbb" d="M1075.1 357.35a3.95 3.95 0 0 1 3.96-3.96h100.6a3.95 3.95 0 1 1 0 7.91h-100.6a3.95 3.95 0 0 1-3.96-3.96z"/><path id="2ovkbc" d="M1075.1 370.37a3.95 3.95 0 0 1 3.96-3.96h74.98a3.95 3.95 0 1 1 0 7.91h-74.99a3.95 3.95 0 0 1-3.95-3.96z"/><path id="2ovkbd" d="M1075.1 385.02a2.79 2.79 0 0 1 2.79-2.79h25.16a2.79 2.79 0 1 1 0 5.58h-25.16a2.79 2.79 0 0 1-2.79-2.79z"/><path id="2ovkbe" d="M903 699l189-12-6.72 5.92L938.07 711"/><path id="2ovkbg" d="M824 681h187l-4.97 4.75-136.6 5.25"/><path id="2ovke" d="M963.31 481c0 8.3-6.86 24.56 2.09 28.78 8.95 4.22 16.86-17.69 16.86-17.69s-.68-16.09-8.77-16.09-10.18-3.31-10.18 5z"/><path id="2ovkbk" d="M962.8 484.72c.71 1.46 10.54 9.19 12.17 11.01 1.63 1.83 2 6.61 2.93 6.12.93-.5 0-14.51 0-14.51s-15.83-4.09-15.1-2.62z"/><path id="2ovkbl" d="M979.12 669.82c0 4.3-1.1 9.65 0 11.79 1.12 2.13 6.63 3.25 8.45 3.25 1.81 0 2.42-3.06 5.25-1.49 2.82 1.57 18.91 1.49 19.96-4.9 1.05-6.37-7.11-6.37-10.74-6.37s-7.47-1.77-12.86-6.34c-5.4-4.57-10.06-.23-10.06 4.06z"/><path id="2ovkbn" d="M999.58 675.33c.88-2.17-1.82-4.55-2.48-4.61"/><path id="2ovkbo" d="M1003.95 675.12c.22-2.57-1.62-3.4-2.34-3.46"/><path id="2ovkbp" d="M1060.27 676.76c0 4.3-1.1 9.65 0 11.79 1.12 2.13 6.63 3.25 8.45 3.25 1.81 0 2.42-3.06 5.25-1.49 2.82 1.57 18.91 1.49 19.96-4.9 1.05-6.37-7.11-6.37-10.74-6.37s-7.47-1.77-12.86-6.34c-5.4-4.57-10.06-.23-10.06 4.06z"/><path id="2ovkbr" d="M1080.73 682.26c.88-2.17-1.82-4.55-2.48-4.61"/><path id="2ovkbs" d="M1085.08 682.06c.23-2.57-1.6-3.4-2.33-3.46"/><path id="2ovkf" d="M1045.29 524.69s17.57 64.17 19.85 78.77c2.3 14.6 7.9 63.96 7.1 71.92-3.82 3.88-10.71 1.56-11.91.84-1.2-.7-8.6-41.32-15.04-57.07-6.45-15.75-20.97-30.25-30.53-46.1 0 10.32-7.39 37.92-7.39 37.92s-10.76 48.75-14.43 56.65c-1.74 2.8-10.52.74-13.92 0 0-7.4 7.34-44.75 7.34-57.72 0-12.97-2.03-36.47-2.79-46.1-.76-9.64-2.6-28.33 0-39.11h61.72z"/><path id="2ovkbv" d="M1005.49 618.47c0-6.28 3.25-57.6 4-55.5.74 2.1 6.55 13.48 6.55 13.48s-10.55 48.3-10.55 42.02z"/><path id="2ovkbw" d="M1009.66 563c.9 3.8 4.41 9.08 6.03 12.23"/><path id="2ovkbx" d="M987.64 535.42c4.1 2.2 20.2 11.57 40.92 7.81 10.24-1.85 16.83-4.28 19.78-7.81 0-1.75-2.48-9.07-3.17-11.87-.7-2.8-62.56 9.17-57.53 11.87z"/><path id="2ovkg" d="M1014.2 388.28s2.38 4.58 6.4 6.53c4.02 1.95 6.03 2.9 6.03 2.9l-1.7 6.6s3.18 9.73 1.7 13c-1.47 3.28-6.03 5.46-8.68 8.38-2.65 2.92-5.1 12.84-5.1 12.84h-17.47l-.8-12.84s-4.65-18.52 3.25-27.98 16.38-9.43 16.38-9.43z"/><path id="2ovkbB" d="M1020.13 423.95c-4.4 0-11.29-3.9-12.61-5.22-1.32-1.33 11.02 13.05 10 15.34-.82 1.81-3.72 2.36-1.9 2.36 6.61 0 8.92-12.48 4.51-12.48z"/><path id="2ovkbC" d="M994.6 425.15c-15.41-14.35-27.6-26.6-17.09-43.66 10.52-17.07 35-22.8 39.57-2.06 0 8.9-6.59 13.66-6.59 13.66s-1.23 2.5 2.02 5.15c3.25 2.66 0 4.85 0 4.85s-6.42-4.12-8.1 1.36c-1.68 5.49 4.51 7.45 4.51 8.82 2.14 5.05-2.27 9.66-2.27 9.66s-2.25 2.22-12.06 2.22z"/><path id="2ovkbE" d="M978.7 444.52s-16.5 28.83-18.48 35.18c-2 6.34 18.48 10.01 18.48 10.01l8.54-36.27z"/><path id="2ovkh" d="M1014.33 434.58s12.42 3.27 19.74 11.9c7.31 8.64 5.68 34.6 7.76 50.06 2.07 15.46 11.09 26.7-2.84 35.42-13.93 8.72-53.33 6.74-56.55 0-3.22-6.74-6.89-48.18-6.89-48.18s0-37.3 4.4-40.44c4.4-3.14 14.67-9.22 14.67-9.22s-.23.92 4.73 1.84c4.95.92 14.98-1.38 14.98-1.38z"/><path id="2ovkbH" d="M1024.64 464.09s6.7 31.21 10.73 37.06c4.03 5.85 6.65 23.56 9.88 25.67 3.23 2.1 7.86-22.04 5.54-30.31-2.31-8.27-12.76-28.52-12.76-28.52z"/><path id="2ovkbJ" d="M997.57 436.26c2.98 1.97 10.75 3.04 17.28 3.04 6.53 0 8.57.07 11.7-.88 3.12-.95 1.9-2.16 0-2.16-1.92 0-7.85-1.39-11.05-1.39-3.19 0-20.92-.58-17.93 1.39z"/><path id="2ovkbL" d="M994.05 434.6s-.38-4.78-.38-6.32 12.86.63 22.12 1.5c1 3.84.83 4.09.83 4.81 0 .36-2.31 3.45-14.75 2.45a18.75 18.75 0 0 1-7.82-2.45z"/><path id="2ovkbM" d="M1034.03 466.95c-1.77-2.1 1.12-7.45 6.45-11.93 5.34-4.48 11.1-6.4 12.88-4.28 1.77 2.11-1.12 7.45-6.45 11.93-5.34 4.48-11.1 6.4-12.88 4.28z"/><path id="2ovki" d="M1049.36 446.86l9.36 10.5s23.84-22.53 26.22-25.8c2.38-3.28 2.06-9.68 2.49-11.7.43-2.02 2.57-6.23 4.59-7.16 2.01-.94 2.08-.23 3.13 0 1.06.22 12.46-8.99 13.83-10.18 1.37-1.19 2.95-1.58 3.86-.52.9 1.06.14 2.34-.89 3.3-1.03.95-6.8 6.33-7.08 7.62-.27 1.3 3.48 4.97 4.36 6.34a6.78 6.78 0 0 1-1.06 8.05c-2.85 3.11-10.98 7.32-11.32 8.89-.33 1.57-16.91 22.92-23.14 31.66-6.22 8.74-11.54 14.4-19.34 9.92-7.8-4.47-20.14-21.54-20.14-21.54s4.49-6.41 7.85-8.01c3.37-1.6 7.28-1.37 7.28-1.37z"/><path id="2ovkbP" d="M1052.57 450.02s-9.55 13.24-10.07 18.25c-.53 5.01-6.12-5.14-6.12-5.14s3.2-6.1 5.88-8.28c2.7-2.18 10.31-4.83 10.31-4.83z"/><path id="2ovkbQ" d="M1058.62 456.9c.51.62 1.53 1.7 1.9 3.79"/><path id="2ovkbR" d="M1034.23 467.17c4.53-5.93 10.85-14.04 18.77-16.89-14.86-17.23-19.38-22.98-24.06-28.37-4.69-5.4-18.19 8.57-10.93 22.32 7.26 13.74 13.76 20.03 16.22 22.94z"/><path id="2ovkbT" d="M1131.64 708.62h201.68v6.28a6.28 6.28 0 0 1-6.28 6.28h-189.12a6.28 6.28 0 0 1-6.28-6.28z"/><path id="2ovkj" d="M1155.4 669.89h155.07c5.1 0 10.54 3.45 12.14 7.7l10.78 28.47c1.6 4.25-2.01 7.7-8.08 7.7h-184.74c-6.08 0-9.7-3.45-8.09-7.7l10.78-28.47c1.6-4.25 7.04-7.7 12.14-7.7z"/><path id="2ovkbV" d="M1162.23 707.97c12.49 0 23.9-7.24 25.5-16.16 1.6-8.93-6-16.16-16.97-16.16-10.98 0-22.4 7.23-25.5 16.16-3.11 8.92 4.49 16.16 16.97 16.16z"/><path id="2ovkbW" d="M1201.74 677.74h103.04c2.23 0 4.52 1.46 5.1 3.27.57 1.8-.82 3.27-3.12 3.27h-105.88c-2.3 0-3.95-1.46-3.68-3.27.27-1.8 2.3-3.27 4.54-3.27z"/><path id="2ovkbX" d="M1200.08 688.73h80.3c2.34 0 4.54 1.46 4.92 3.27.38 1.8-1.27 3.27-3.67 3.27h-82.4c-2.41 0-4.14-1.46-3.87-3.27.27-1.8 2.38-3.27 4.72-3.27z"/><path id="2ovkbY" d="M1197.45 701.82h28.35c1.74 0 3.14 1.03 3.12 2.3-.02 1.28-1.47 2.32-3.25 2.32h-28.85c-1.77 0-3.05-1.04-2.86-2.31.19-1.28 1.75-2.31 3.5-2.31z"/><path id="2ovkbZ" d="M1125.03 692.52h201.68v6.28a6.28 6.28 0 0 1-6.28 6.28h-189.12a6.28 6.28 0 0 1-6.28-6.28z"/><path id="2ovkk" d="M1148.8 653.78h155.07c5.1 0 10.54 3.45 12.14 7.7l10.78 28.47c1.6 4.25-2.01 7.7-8.08 7.7h-184.74c-6.08 0-9.7-3.45-8.09-7.7l10.78-28.47c1.6-4.25 7.04-7.7 12.14-7.7z"/><path id="2ovkcb" d="M1155.63 691.86c12.49 0 23.9-7.24 25.5-16.16 1.6-8.93-6-16.16-16.97-16.16-10.98 0-22.4 7.23-25.5 16.16-3.11 8.92 4.49 16.16 16.97 16.16z"/><path id="2ovkcc" d="M1195.14 661.64h103.04c2.23 0 4.52 1.46 5.1 3.27.57 1.8-.82 3.27-3.12 3.27h-105.88c-2.3 0-3.95-1.46-3.68-3.27.27-1.8 2.3-3.27 4.54-3.27z"/><path id="2ovkcd" d="M1193.47 672.63h80.3c2.34 0 4.54 1.46 4.92 3.27.38 1.8-1.27 3.27-3.67 3.27h-82.4c-2.41 0-4.14-1.46-3.87-3.27.27-1.8 2.38-3.27 4.72-3.27z"/><path id="2ovkce" d="M1190.85 685.72h28.35c1.74 0 3.14 1.03 3.12 2.3-.02 1.28-1.47 2.32-3.25 2.32h-28.85c-1.77 0-3.05-1.04-2.86-2.31.19-1.28 1.75-2.31 3.5-2.31z"/><path id="2ovkcf" d="M1136.69 676.23h201.68v6.28a6.28 6.28 0 0 1-6.28 6.28h-189.12a6.28 6.28 0 0 1-6.28-6.28z"/><path id="2ovkl" d="M1160.45 637.49h155.07c5.1 0 10.54 3.45 12.14 7.7l10.78 28.47c1.6 4.25-2.01 7.7-8.08 7.7h-184.74c-6.08 0-9.7-3.45-8.09-7.7l10.78-28.47c1.6-4.25 7.04-7.7 12.14-7.7z"/><path id="2ovkch" d="M1167.3 675.57c12.48 0 23.9-7.24 25.5-16.16 1.6-8.93-6.01-16.16-16.98-16.16-10.98 0-22.4 7.23-25.5 16.16-3.11 8.92 4.49 16.16 16.97 16.16z"/><path id="2ovkci" d="M1206.8 645.35h103.04c2.23 0 4.52 1.46 5.1 3.27.57 1.8-.82 3.27-3.12 3.27h-105.88c-2.3 0-3.95-1.46-3.68-3.27.27-1.8 2.3-3.27 4.54-3.27z"/><path id="2ovkcj" d="M1205.13 656.34h80.3c2.34 0 4.54 1.46 4.92 3.27.38 1.8-1.27 3.27-3.67 3.27h-82.4c-2.41 0-4.14-1.46-3.87-3.27.27-1.8 2.38-3.27 4.72-3.27z"/><path id="2ovkck" d="M1202.51 669.43h28.35c1.74 0 3.14 1.03 3.12 2.3-.02 1.28-1.47 2.32-3.25 2.32h-28.85c-1.77 0-3.05-1.04-2.86-2.31.19-1.28 1.75-2.31 3.5-2.31z"/><path id="2ovkcl" d="M1118 660.99h201.61v6.33c0 3.49-2.83 6.32-6.32 6.32h-188.96a6.33 6.33 0 0 1-6.33-6.32z"/><path id="2ovkm" d="M1141.75 622h155.01c5.1 0 10.53 3.47 12.14 7.75l10.77 28.66c1.6 4.27-2 7.74-8.08 7.74h-184.67c-6.07 0-9.69-3.47-8.08-7.74l10.77-28.66c1.61-4.28 7.05-7.75 12.14-7.75z"/><path id="2ovkcn" d="M1148.59 660.33c12.47 0 23.89-7.28 25.49-16.26 1.6-8.99-6-16.27-16.97-16.27-10.98 0-22.39 7.28-25.5 16.27-3.1 8.98 4.5 16.26 16.98 16.26z"/><path id="2ovkco" d="M1188.08 629.9h103c2.23 0 4.51 1.47 5.1 3.3.57 1.81-.83 3.28-3.13 3.28h-105.83c-2.3 0-3.95-1.47-3.68-3.29s2.3-3.29 4.54-3.29z"/><path id="2ovkcp" d="M1186.42 640.97h80.26c2.34 0 4.54 1.47 4.92 3.3.38 1.81-1.26 3.28-3.66 3.28h-82.38c-2.4 0-4.13-1.47-3.86-3.29s2.38-3.29 4.72-3.29z"/><path id="2ovkcq" d="M1183.8 654.14h28.33c1.74 0 3.13 1.04 3.11 2.32-.02 1.29-1.47 2.33-3.24 2.33h-28.84c-1.77 0-3.05-1.04-2.86-2.33.19-1.28 1.75-2.32 3.5-2.32z"/><linearGradient id="2ovkn" x1="1012.29" x2="1054.58" y1="372.65" y2="294.04" gradientUnits="userSpaceOnUse"><stop offset="0" stop-color="#ecf1ff"/><stop offset="1" stop-color="#fff"/></linearGradient><filter id="2ovkp" width="200%" height="200%" x="-50%" y="-50%"><feGaussianBlur in="SourceGraphic" result="FeGaussianBlur1081Out" stdDeviation="12.5 12.5"/></filter><mask id="2ovkq"><use fill="#fff" xlink:href="#2ovka"/></mask><linearGradient id="2ovkr" x1="1184.21" x2="1225.98" y1="307.69" y2="226.61" gradientUnits="userSpaceOnUse"><stop offset="0" stop-color="#ecf1ff"/><stop offset="1" stop-color="#fff"/></linearGradient><filter id="2ovkt" width="200%" height="200%" x="-50%" y="-50%"><feGaussianBlur in="SourceGraphic" result="FeGaussianBlur1094Out" stdDeviation="12.5 12.5"/></filter><mask id="2ovku"><use fill="#fff" xlink:href="#2ovkb"/></mask><linearGradient id="2ovkx" x1="1359.35" x2="1336.53" y1="409.56" y2="462.34" gradientUnits="userSpaceOnUse"><stop offset="0" stop-color="#f1f6ff"/><stop offset="1" stop-color="#c4d7fb"/></linearGradient><linearGradient id="2ovkz" x1="1397.7" x2="1374.88" y1="431.21" y2="483.98" gradientUnits="userSpaceOnUse"><stop offset="0" stop-color="#f1f6ff"/><stop offset="1" stop-color="#c4d7fb"/></linearGradient><linearGradient id="2ovkB" x1="1385.19" x2="1362.36" y1="461.97" y2="514.75" gradientUnits="userSpaceOnUse"><stop offset="0" stop-color="#f1f6ff"/><stop offset="1" stop-color="#c4d7fb"/></linearGradient><linearGradient id="2ovkD" x1="1374.97" x2="1352.15" y1="491.81" y2="544.58" gradientUnits="userSpaceOnUse"><stop offset="0" stop-color="#f1f6ff"/><stop offset="1" stop-color="#c4d7fb"/></linearGradient><linearGradient id="2ovkF" x1="1395.73" x2="1372.91" y1="394.73" y2="447.51" gradientUnits="userSpaceOnUse"><stop offset="0" stop-color="#f1f6ff"/><stop offset="1" stop-color="#c4d7fb"/></linearGradient><linearGradient id="2ovkH" x1="1342.67" x2="1319.85" y1="442.11" y2="494.89" gradientUnits="userSpaceOnUse"><stop offset="0" stop-color="#f1f6ff"/><stop offset="1" stop-color="#c4d7fb"/></linearGradient><linearGradient id="2ovkJ" x1="1330.14" x2="1307.32" y1="474.74" y2="527.52" gradientUnits="userSpaceOnUse"><stop offset="0" stop-color="#f1f6ff"/><stop offset="1" stop-color="#c4d7fb"/></linearGradient><linearGradient id="2ovkL" x1="837.99" x2="905.59" y1="355.88" y2="512.34" gradientUnits="userSpaceOnUse"><stop offset="0" stop-color="#b9e4f9"/><stop offset="1" stop-color="#83d0f5"/></linearGradient><filter id="2ovkP" width="292%" height="2632%" x="-86%" y="-1256%" filterUnits="objectBoundingBox"><feGaussianBlur in="SourceGraphic" result="FeGaussianBlur1191Out" stdDeviation="31.12723214285714 0"/></filter><linearGradient id="2ovkT" x1="1313.06" x2="1295.09" y1="449.96" y2="491.32" gradientUnits="userSpaceOnUse"><stop offset="0" stop-color="#cfddf3"/><stop offset="1" stop-color="#a1b8e3"/></linearGradient><linearGradient id="2ovkV" x1="1341.91" x2="1323.94" y1="466.16" y2="507.52" gradientUnits="userSpaceOnUse"><stop offset="0" stop-color="#cfddf3"/><stop offset="1" stop-color="#a1b8e3"/></linearGradient><linearGradient id="2ovkX" x1="1332.49" x2="1314.52" y1="489.19" y2="530.56" gradientUnits="userSpaceOnUse"><stop offset="0" stop-color="#cfddf3"/><stop offset="1" stop-color="#a1b8e3"/></linearGradient><linearGradient id="2ovkZ" x1="1324.81" x2="1306.84" y1="511.53" y2="552.89" gradientUnits="userSpaceOnUse"><stop offset="0" stop-color="#cfddf3"/><stop offset="1" stop-color="#a1b8e3"/></linearGradient><linearGradient id="2ovkab" x1="1340.43" x2="1322.46" y1="438.85" y2="480.22" gradientUnits="userSpaceOnUse"><stop offset="0" stop-color="#cfddf3"/><stop offset="1" stop-color="#a1b8e3"/></linearGradient><linearGradient id="2ovkad" x1="1300.51" x2="1282.54" y1="474.32" y2="515.69" gradientUnits="userSpaceOnUse"><stop offset="0" stop-color="#cfddf3"/><stop offset="1" stop-color="#a1b8e3"/></linearGradient><linearGradient id="2ovkaf" x1="1291.09" x2="1273.12" y1="498.75" y2="540.12" gradientUnits="userSpaceOnUse"><stop offset="0" stop-color="#cfddf3"/><stop offset="1" stop-color="#a1b8e3"/></linearGradient><linearGradient id="2ovkah" x1="900.5" x2="918" y1="555.71" y2="580.93" gradientUnits="userSpaceOnUse"><stop offset="0" stop-color="#edf3fd" stop-opacity="0"/><stop offset="1" stop-color="#d6e3fa"/></linearGradient><radialGradient id="2ovkai" cx="924.02" cy="472.24" r="83.96" gradientUnits="userSpaceOnUse"><stop offset="0" stop-color="#64cf9b"/><stop offset="1" stop-color="#adf9a9"/></radialGradient><filter id="2ovkak" width="200%" height="200%" x="-50%" y="-50%"><feGaussianBlur in="SourceGraphic" result="FeGaussianBlur1276Out" stdDeviation="15 15"/></filter><mask id="2ovkal"><use fill="#fff" xlink:href="#2ovkc"/></mask><linearGradient id="2ovkas" x1="1110" x2="1101.64" y1="600.86" y2="652.05" gradientUnits="userSpaceOnUse"><stop offset="0" stop-color="#d0dcf1"/><stop offset="1" stop-color="#fff"/></linearGradient><filter id="2ovkat" width="204%" height="972%" x="-42%" y="-426%" filterUnits="objectBoundingBox"><feGaussianBlur in="SourceGraphic" result="FeGaussianBlur1323Out" stdDeviation="31.12723214285714 0"/></filter><linearGradient id="2ovkaw" x1="1374.55" x2="1170.59" y1="349.45" y2="517.72" gradientUnits="userSpaceOnUse"><stop offset="0" stop-color="#47689b"/><stop offset="1" stop-color="#223762"/></linearGradient><linearGradient id="2ovkay" x1="1251.31" x2="1044.6" y1="276.51" y2="600" gradientUnits="userSpaceOnUse"><stop offset="0" stop-color="#47689b"/><stop offset="1" stop-color="#223762"/></linearGradient><linearGradient id="2ovkaA" x1="1099.59" x2="1246.96" y1="244.62" y2="244.62" gradientUnits="userSpaceOnUse"><stop offset="0" stop-color="#365383"/><stop offset="1" stop-color="#1c2c4c"/></linearGradient><linearGradient id="2ovkaC" x1="1123.66" x2="1152.19" y1="600.08" y2="559.77" gradientUnits="userSpaceOnUse"><stop offset="0" stop-color="#365383"/><stop offset="1" stop-color="#1c2c4c"/></linearGradient><mask id="2ovkaE" width="2" height="2" x="-1" y="-1"><path fill="#fff" d="M1040 266h195v279h-195z"/><use xlink:href="#2ovkd"/></mask><filter id="2ovkaD" width="539" height="623" x="868" y="94" filterUnits="userSpaceOnUse"><feOffset in="SourceGraphic" result="FeOffset1373Out"/><feGaussianBlur in="FeOffset1373Out" result="FeGaussianBlur1374Out" stdDeviation="64.8 64.8"/></filter><linearGradient id="2ovkaH" x1="1146.47" x2="1090.53" y1="599.91" y2="522.46" gradientUnits="userSpaceOnUse"><stop offset="0" stop-color="#edf3fd"/><stop offset="1" stop-color="#d6e3fa"/></linearGradient><linearGradient id="2ovkaN" x1="1146.47" x2="1090.53" y1="535.7" y2="458.25" gradientUnits="userSpaceOnUse"><stop offset="0" stop-color="#edf3fd"/><stop offset="1" stop-color="#d6e3fa"/></linearGradient><linearGradient id="2ovkaT" x1="1146.47" x2="1090.53" y1="401.69" y2="324.24" gradientUnits="userSpaceOnUse"><stop offset="0" stop-color="#edf3fd"/><stop offset="1" stop-color="#d6e3fa"/></linearGradient><linearGradient id="2ovkaZ" x1="1180.67" x2="1079.72" y1="435.7" y2="370.6" gradientUnits="userSpaceOnUse"><stop offset="0" stop-color="#ffe883"/><stop offset="1" stop-color="#fecc4c"/></linearGradient><linearGradient id="2ovkbf" x1="1077.05" x2="816" y1="690.85" y2="690.85" gradientUnits="userSpaceOnUse"><stop offset="0" stop-color="#d0dcf1"/><stop offset="1" stop-color="#fff" stop-opacity="0"/></linearGradient><linearGradient id="2ovkbh" x1="996.21" x2="737.93" y1="682.61" y2="682.61" gradientUnits="userSpaceOnUse"><stop offset="0" stop-color="#d0dcf1"/><stop offset="1" stop-color="#fff" stop-opacity="0"/></linearGradient><linearGradient id="2ovkbi" x1="971.52" x2="976.55" y1="517.63" y2="496.85" gradientUnits="userSpaceOnUse"><stop offset="0" stop-color="#70b8f9"/><stop offset="1" stop-color="#3d82f0"/></linearGradient><linearGradient id="2ovkbm" x1="969.79" x2="993.17" y1="684.86" y2="670.21" gradientUnits="userSpaceOnUse"><stop offset="0" stop-color="#47689b"/><stop offset="1" stop-color="#223762"/></linearGradient><linearGradient id="2ovkbq" x1="1050.95" x2="1074.31" y1="691.79" y2="677.15" gradientUnits="userSpaceOnUse"><stop offset="0" stop-color="#47689b"/><stop offset="1" stop-color="#223762"/></linearGradient><linearGradient id="2ovkbt" x1="979.02" x2="1005.5" y1="687.91" y2="525.65" gradientUnits="userSpaceOnUse"><stop offset="0" stop-color="#d5eefb"/><stop offset="1" stop-color="#7bcdf4"/></linearGradient><linearGradient id="2ovkby" x1="1041.79" x2="1036.05" y1="540.59" y2="528.52" gradientUnits="userSpaceOnUse"><stop offset="0" stop-color="#cfddf3" stop-opacity=".48"/><stop offset="1" stop-color="#a1b8e3"/></linearGradient><linearGradient id="2ovkbz" x1="1033.54" x2="1016.3" y1="388.28" y2="413.4" gradientUnits="userSpaceOnUse"><stop offset="0" stop-color="#70b8f9"/><stop offset="1" stop-color="#3d82f0"/></linearGradient><linearGradient id="2ovkbD" x1="995.33" x2="1009" y1="366.13" y2="399.43" gradientUnits="userSpaceOnUse"><stop offset="0" stop-color="#164898"/><stop offset="1" stop-color="#223762"/></linearGradient><linearGradient id="2ovkbF" x1="960.04" x2="980.58" y1="467.12" y2="459.64" gradientUnits="userSpaceOnUse"><stop offset="0" stop-color="#edf3fd"/><stop offset="1" stop-color="#d6e3fa"/></linearGradient><linearGradient id="2ovkbI" x1="1036.62" x2="1042.7" y1="500.41" y2="479" gradientUnits="userSpaceOnUse"><stop offset="0" stop-color="#cfddf3"/><stop offset="1" stop-color="#a1b8e3"/></linearGradient><linearGradient id="2ovkbK" x1="1024.16" x2="1015.02" y1="445.24" y2="432.21" gradientUnits="userSpaceOnUse"><stop offset="0" stop-color="#cfddf3"/><stop offset="1" stop-color="#a1b8e3"/></linearGradient><linearGradient id="2ovkbN" x1="1072.6" x2="1072.6" y1="539.62" y2="411.84" gradientUnits="userSpaceOnUse"><stop offset="0" stop-color="#70b8f9"/><stop offset="1" stop-color="#3d82f0"/></linearGradient><linearGradient id="2ovkbS" x1="1024.11" x2="1024.11" y1="425.93" y2="457.7" gradientUnits="userSpaceOnUse"><stop offset="0" stop-color="#d6e3fa"/><stop offset="1" stop-color="#e3edfe"/></linearGradient><clipPath id="2ovkaF"><use xlink:href="#2ovkd"/></clipPath><clipPath id="2ovkbj"><use xlink:href="#2ovke"/></clipPath><clipPath id="2ovkbu"><use xlink:href="#2ovkf"/></clipPath><clipPath id="2ovkbA"><use xlink:href="#2ovkg"/></clipPath><clipPath id="2ovkbG"><use xlink:href="#2ovkh"/></clipPath><clipPath id="2ovkbO"><use xlink:href="#2ovki"/></clipPath><clipPath id="2ovkbU"><use xlink:href="#2ovkj"/></clipPath><clipPath id="2ovkca"><use xlink:href="#2ovkk"/></clipPath><clipPath id="2ovkcg"><use xlink:href="#2ovkl"/></clipPath><clipPath id="2ovkcm"><use xlink:href="#2ovkm"/></clipPath></defs><g><g opacity=".5" transform="translate(-811 -211)"><use fill="url(#2ovkn)" xlink:href="#2ovka"/><use fill="#c9d3e5" fill-opacity=".34" stroke="#c9d3e5" stroke-opacity=".34" stroke-width="0" filter="url(#2ovkp)" mask="url(&quot;#2ovkq&quot;)" xlink:href="#2ovko"/></g><g opacity=".5" transform="translate(-811 -211)"><use fill="url(#2ovkr)" xlink:href="#2ovkb"/><use fill="#c9d3e5" fill-opacity=".34" stroke="#c9d3e5" stroke-opacity=".34" stroke-width="0" filter="url(#2ovkt)" mask="url(&quot;#2ovku&quot;)" xlink:href="#2ovks"/></g><g transform="rotate(17 1648.42 -2322.26)"><g><use fill="#fff" fill-opacity="0" stroke="#000" stroke-linecap="round" stroke-miterlimit="50" stroke-width="6" xlink:href="#2ovkv"/></g><g><use fill="url(#2ovkx)" xlink:href="#2ovkw"/></g><g><use fill="url(#2ovkz)" xlink:href="#2ovky"/></g><g><use fill="url(#2ovkB)" xlink:href="#2ovkA"/></g><g><use fill="url(#2ovkD)" xlink:href="#2ovkC"/></g><g><use fill="url(#2ovkF)" xlink:href="#2ovkE"/></g><g><use fill="url(#2ovkH)" xlink:href="#2ovkG"/></g><g><use fill="url(#2ovkJ)" xlink:href="#2ovkI"/></g></g><g transform="translate(-811 -211)"><g><use fill="url(#2ovkL)" xlink:href="#2ovkK"/></g><g><use fill="#fff" fill-opacity="0" stroke="#000" stroke-linecap="round" stroke-miterlimit="50" stroke-width="6" xlink:href="#2ovkM"/></g><g><use fill="#fff" fill-opacity="0" stroke="#000" stroke-linecap="round" stroke-miterlimit="50" stroke-width="6" xlink:href="#2ovkN"/></g><g><use fill="#fff" fill-opacity="0" stroke="#000" stroke-linecap="round" stroke-miterlimit="50" stroke-width="6" xlink:href="#2ovkO"/></g></g><g filter="url(#2ovkP)" transform="translate(-811 -211)"><g opacity=".08"><use fill="#8699bf" xlink:href="#2ovkQ"/></g></g><g opacity=".62" transform="scale(-1 1) rotate(18 1071.6 -5247.62)"><g opacity=".62"><use fill="#fff" fill-opacity="0" stroke="#000" stroke-linecap="round" stroke-miterlimit="50" stroke-width="4.5" xlink:href="#2ovkR"/></g><g opacity=".62"><use fill="url(#2ovkT)" xlink:href="#2ovkS"/></g><g opacity=".62"><use fill="url(#2ovkV)" xlink:href="#2ovkU"/></g><g opacity=".62"><use fill="url(#2ovkX)" xlink:href="#2ovkW"/></g><g opacity=".62"><use fill="url(#2ovkZ)" xlink:href="#2ovkY"/></g><g opacity=".62"><use fill="url(#2ovkab)" xlink:href="#2ovkaa"/></g><g opacity=".62"><use fill="url(#2ovkad)" xlink:href="#2ovkac"/></g><g opacity=".62"><use fill="url(#2ovkaf)" xlink:href="#2ovkae"/></g></g><g transform="translate(-811 -211)"><use fill="url(#2ovkah)" xlink:href="#2ovkag"/></g><g transform="translate(-811 -211)"><g><use fill="url(#2ovkai)" xlink:href="#2ovkc"/><use fill="#45cb78" fill-opacity=".5" stroke="#45cb78" stroke-opacity=".5" stroke-width="0" filter="url(#2ovkak)" mask="url(&quot;#2ovkal&quot;)" xlink:href="#2ovkaj"/></g><g><use xlink:href="#2ovkam"/><use fill="#fff" fill-opacity="0" stroke="#000" stroke-linecap="round" stroke-linejoin="round" stroke-miterlimit="50" stroke-width="6" xlink:href="#2ovkam"/></g><g opacity=".3"><use xlink:href="#2ovkan"/><use fill="#fff" fill-opacity="0" stroke="#000" stroke-linecap="round" stroke-linejoin="round" stroke-miterlimit="50" stroke-width="5" xlink:href="#2ovkan"/></g><g opacity=".3"><use xlink:href="#2ovkao"/><use fill="#fff" fill-opacity="0" stroke="#000" stroke-linecap="round" stroke-linejoin="round" stroke-miterlimit="50" stroke-width="5" xlink:href="#2ovkao"/></g><g opacity=".3"><use xlink:href="#2ovkap"/><use fill="#fff" fill-opacity="0" stroke="#000" stroke-linecap="round" stroke-linejoin="round" stroke-miterlimit="50" stroke-width="5" xlink:href="#2ovkap"/></g><g opacity=".3"><use xlink:href="#2ovkaq"/><use fill="#fff" fill-opacity="0" stroke="#000" stroke-linecap="round" stroke-linejoin="round" stroke-miterlimit="50" stroke-width="5" xlink:href="#2ovkaq"/></g></g><g opacity=".12" transform="translate(-811 -211)"><use fill="url(#2ovkas)" xlink:href="#2ovkar"/></g><g filter="url(#2ovkat)" transform="translate(-811 -211)"><g><use fill="#8699bf" xlink:href="#2ovkau"/></g></g><g transform="translate(-811 -211)"><g><use fill="url(#2ovkaw)" xlink:href="#2ovkav"/></g><g><use fill="url(#2ovkay)" xlink:href="#2ovkax"/></g><g><use fill="url(#2ovkaA)" xlink:href="#2ovkaz"/></g><g><use fill="url(#2ovkaC)" xlink:href="#2ovkaB"/></g><g><g><g filter="url(#2ovkaD)"><use fill="none" stroke-width="0" mask="url(&quot;#2ovkaE&quot;)" xlink:href="#2ovkd"/><use fill="#fff" xlink:href="#2ovkd"/></g><use fill="#fff" xlink:href="#2ovkd"/></g><g clip-path="url(#2ovkaF)" opacity=".6"><g opacity=".6"><use fill="url(#2ovkaH)" xlink:href="#2ovkaG"/></g><g opacity=".6"><use fill="#a1b8e3" xlink:href="#2ovkaI"/></g><g opacity=".6"><use fill="#a1b8e3" xlink:href="#2ovkaJ"/></g><g opacity=".6"><use fill="#a1b8e3" xlink:href="#2ovkaK"/></g><g opacity=".3"><use fill="#a1b8e3" xlink:href="#2ovkaL"/></g></g><g clip-path="url(#2ovkaF)" opacity=".6"><g opacity=".6"><use fill="url(#2ovkaN)" xlink:href="#2ovkaM"/></g><g opacity=".6"><use fill="#a1b8e3" xlink:href="#2ovkaO"/></g><g opacity=".6"><use fill="#a1b8e3" xlink:href="#2ovkaP"/></g><g opacity=".6"><use fill="#a1b8e3" xlink:href="#2ovkaQ"/></g><g opacity=".3"><use fill="#a1b8e3" xlink:href="#2ovkaR"/></g></g><g clip-path="url(#2ovkaF)" opacity=".6"><g opacity=".6"><use fill="url(#2ovkaT)" xlink:href="#2ovkaS"/></g><g opacity=".6"><use fill="#a1b8e3" xlink:href="#2ovkaU"/></g><g opacity=".6"><use fill="#a1b8e3" xlink:href="#2ovkaV"/></g><g opacity=".6"><use fill="#a1b8e3" xlink:href="#2ovkaW"/></g><g opacity=".3"><use fill="#a1b8e3" xlink:href="#2ovkaX"/></g></g></g><g><g><use fill="url(#2ovkaZ)" xlink:href="#2ovkaY"/></g><g><use fill="#ffb417" xlink:href="#2ovkba"/></g><g><use fill="#ffb417" xlink:href="#2ovkbb"/></g><g><use fill="#ffb417" xlink:href="#2ovkbc"/></g><g opacity=".5"><use fill="#ffb417" xlink:href="#2ovkbd"/></g></g></g><g opacity=".12" transform="translate(-811 -211)"><use fill="url(#2ovkbf)" xlink:href="#2ovkbe"/></g><g opacity=".12" transform="translate(-811 -211)"><use fill="url(#2ovkbh)" xlink:href="#2ovkbg"/></g><g transform="translate(-811 -211)"><g><g><use fill="url(#2ovkbi)" xlink:href="#2ovke"/></g><g clip-path="url(#2ovkbj)" opacity=".5"><use fill="#3d82f0" xlink:href="#2ovkbk"/></g></g><g transform="rotate(2 995.5 674)"><g><use fill="url(#2ovkbm)" xlink:href="#2ovkbl"/></g><g><g><use fill="#fff" fill-opacity="0" stroke="#fff" stroke-linecap="round" stroke-miterlimit="50" stroke-width="2" xlink:href="#2ovkbn"/></g><g><use fill="#fff" fill-opacity="0" stroke="#fff" stroke-linecap="round" stroke-miterlimit="50" stroke-width="2" xlink:href="#2ovkbo"/></g></g></g><g transform="rotate(-5 1077 682)"><g><use fill="url(#2ovkbq)" xlink:href="#2ovkbp"/></g><g><g><use fill="#fff" fill-opacity="0" stroke="#fff" stroke-linecap="round" stroke-miterlimit="50" stroke-width="2" xlink:href="#2ovkbr"/></g><g><use fill="#fff" fill-opacity="0" stroke="#fff" stroke-linecap="round" stroke-miterlimit="50" stroke-width="2" xlink:href="#2ovkbs"/></g></g></g><g><g><use fill="url(#2ovkbt)" xlink:href="#2ovkf"/></g><g clip-path="url(#2ovkbu)" opacity=".5"><use fill="#6ebbeb" xlink:href="#2ovkbv"/></g><g clip-path="url(#2ovkbu)"><use fill="#fff" fill-opacity="0" stroke="#fff" stroke-linecap="round" stroke-miterlimit="50" stroke-width="2" xlink:href="#2ovkbw"/></g><g clip-path="url(#2ovkbu)" opacity=".5"><use fill="url(#2ovkby)" xlink:href="#2ovkbx"/></g></g><g><g><use fill="url(#2ovkbz)" xlink:href="#2ovkg"/></g><g clip-path="url(#2ovkbA)" opacity=".5"><use fill="#3d82f0" xlink:href="#2ovkbB"/></g></g><g><use fill="url(#2ovkbD)" xlink:href="#2ovkbC"/></g><g><use fill="url(#2ovkbF)" xlink:href="#2ovkbE"/></g><g><g><use fill="#d6e3fa" xlink:href="#2ovkh"/></g><g clip-path="url(#2ovkbG)" opacity=".5"><use fill="url(#2ovkbI)" xlink:href="#2ovkbH"/></g><g clip-path="url(#2ovkbG)" opacity=".5"><use fill="url(#2ovkbK)" xlink:href="#2ovkbJ"/></g></g><g><use fill="#e1ecff" xlink:href="#2ovkbL"/></g><g transform="rotate(-26 1059 431.5)"><g><use fill="#a1b8e3" xlink:href="#2ovkbM"/></g><g><g><use fill="url(#2ovkbN)" xlink:href="#2ovki"/></g><g clip-path="url(#2ovkbO)" opacity=".5"><use fill="#3d82f0" xlink:href="#2ovkbP"/></g><g clip-path="url(#2ovkbO)"><use fill="#fff" fill-opacity="0" stroke="#223762" stroke-linecap="round" stroke-miterlimit="50" stroke-width="2" xlink:href="#2ovkbQ"/></g></g><g><use fill="url(#2ovkbS)" xlink:href="#2ovkbR"/></g></g></g><g transform="translate(-811 -211)"><g transform="rotate(-2 1231.5 678)"><g transform="rotate(2 1233.5 695.5)"><g><use fill="#6cb5e8" xlink:href="#2ovkbT"/></g><g><g><use fill="#e9f0fc" xlink:href="#2ovkj"/></g><g clip-path="url(#2ovkbU)"><use fill="#6cb5e8" xlink:href="#2ovkbV"/></g><g clip-path="url(#2ovkbU)"><use fill="#cad7f1" xlink:href="#2ovkbW"/></g><g clip-path="url(#2ovkbU)"><use fill="#cad7f1" xlink:href="#2ovkbX"/></g><g clip-path="url(#2ovkbU)" opacity=".5"><use fill="#cad7f1" xlink:href="#2ovkbY"/></g></g></g><g transform="rotate(3 1225.5 679.5)"><g><use fill="#6cb5e8" xlink:href="#2ovkbZ"/></g><g><g><use fill="#e9f0fc" xlink:href="#2ovkk"/></g><g clip-path="url(#2ovkca)"><use fill="#cad7f1" xlink:href="#2ovkcb"/></g><g clip-path="url(#2ovkca)"><use fill="#cad7f1" xlink:href="#2ovkcc"/></g><g clip-path="url(#2ovkca)"><use fill="#cad7f1" xlink:href="#2ovkcd"/></g><g clip-path="url(#2ovkca)" opacity=".5"><use fill="#cad7f1" xlink:href="#2ovkce"/></g></g></g><g><g><use fill="#6cb5e8" xlink:href="#2ovkcf"/></g><g><g><use fill="#e9f0fc" xlink:href="#2ovkl"/></g><g clip-path="url(#2ovkcg)"><use fill="#6cb5e8" xlink:href="#2ovkch"/></g><g clip-path="url(#2ovkcg)"><use fill="#cad7f1" xlink:href="#2ovkci"/></g><g clip-path="url(#2ovkcg)"><use fill="#cad7f1" xlink:href="#2ovkcj"/></g><g clip-path="url(#2ovkcg)" opacity=".5"><use fill="#cad7f1" xlink:href="#2ovkck"/></g></g></g></g><g><g><use fill="#6cb5e8" xlink:href="#2ovkcl"/></g><g><g><use fill="#e9f0fc" xlink:href="#2ovkm"/></g><g clip-path="url(#2ovkcm)" opacity=".5"><use fill="#6cb5e8" xlink:href="#2ovkcn"/></g><g clip-path="url(#2ovkcm)" opacity=".5"><use fill="#6cb5e8" xlink:href="#2ovkco"/></g><g clip-path="url(#2ovkcm)" opacity=".5"><use fill="#6cb5e8" xlink:href="#2ovkcp"/></g><g clip-path="url(#2ovkcm)" opacity=".3"><use fill="#6cb5e8" xlink:href="#2ovkcq"/></g></g></g></g></g></svg>