<svg xmlns="http://www.w3.org/2000/svg" xmlns:xlink="http://www.w3.org/1999/xlink" width="221" height="252" viewBox="0 0 221 252"><defs><path id="vgkua" d="M971.05 2898.12v-161.65h200.89v161.65z"/><path id="vgkub" d="M1036.22 2759.22v-65.34h38.17v65.34z"/><path id="vgkud" d="M1030.43 2734.05v-66.3h54.1v66.3z"/><path id="vgkuf" d="M1022.21 2710.34v-65.83h83.57v65.83z"/><path id="vgkuh" d="M1001.13 2929.2c0-5.38-6.23-40.65 6.6-51.25 12.84-10.6 28.71 4.86 87.17 7.2.96 23.7.96 40.37 0 50.03-.96 9.66-36.28 23.36-93.77-5.98z"/><path id="vgkui" d="M991.22 2883.53c1.38 6.12 5.94 12.65 7.48 14.06 1.53 1.41 7.12 3.16 8.18 2.82 1.06-.34 3.84-2.67 3.96-5.4.13-2.72-2.54-4.25-2.56-8.28-.01-4.03-6.7-9.87-6.7-13.43 0-3.57-11.74 4.11-10.36 10.23z"/><path id="vgkuj" d="M1163.06 2875.14c4.15 5.5 6.85 6.47 8.4 8.11 1.55 1.65 5.11 7.45 6.43 6.48 1.32-.96 2.69-2.87.63-6.48-2.05-3.6-5.16-7.4-4.08-9.31 1.08-1.91 6.35-7.55 10.75-8.86 4.4-1.31 5.87-.47 6.3-1.17.45-.7-5.26-1.73-7.6-2a42.87 42.87 0 0 0-10.49 0c-3.2.39-5.43-.95-6.69-3.99-5.2 7.8-6.41 13.54-3.65 17.22z"/><path id="vgkul" d="M940 2925v-215h263v215zm239.94-23.88v-161.65H979.05v161.65z"/><path id="vgkup" d="M1001 2806.83l18.2-24.24s6.75 78.6-23.35 105.83c-5.3-31.5-2.35-47.96 0-61.72 1.54-9.04 5.15-19.87 5.15-19.87z"/><path id="vgkur" d="M1007.07 2893.89c6.8-19.95 37.34-85.64 50.4-95 13.08-9.38 14.06-21.47 13.57-37.51-.5-16.05-31.02-48.02-46.98-35.93-15.96 12.1-58.69 34.4-63.36 71.82-4.67 37.41 15.23 94.8 24.22 89.13 8.98-5.68 15.36 27.44 22.15 7.49z"/><path id="vgkut" d="M1035.73 2756.31v-36.3h34.79v36.3z"/><linearGradient id="vgkuc" x1="1037.65" x2="1063.39" y1="2708.22" y2="2742.53" gradientUnits="userSpaceOnUse"><stop offset="0" stop-color="#00224e"/><stop offset="1" stop-color="#113275"/></linearGradient><radialGradient id="vgkue" cx="1083.54" cy="2718.26" r="38.09" gradientUnits="userSpaceOnUse"><stop offset="0" stop-color="#2d6dc0"/><stop offset="1" stop-color="#143b8c"/></radialGradient><linearGradient id="vgkug" x1="1088.93" x2="1058" y1="2656.1" y2="2689.8" gradientUnits="userSpaceOnUse"><stop offset="0" stop-color="#fff"/><stop offset="1" stop-color="#dde9ff"/></linearGradient><linearGradient id="vgkuk" x1="1151.71" x2="1061.11" y1="2761.26" y2="2789.57" gradientUnits="userSpaceOnUse"><stop offset="0" stop-color="#fff"/><stop offset="1" stop-color="#fff"/></linearGradient><filter id="vgkum" width="200%" height="200%" x="-50%" y="-50%"><feGaussianBlur in="SourceGraphic" result="FeGaussianBlur3139Out" stdDeviation="11.5 11.5"/></filter><mask id="vgkun"><use fill="#fff" xlink:href="#vgkua"/></mask><linearGradient id="vgkuq" x1="992.88" x2="1020.44" y1="2896.19" y2="2789.26" gradientUnits="userSpaceOnUse"><stop offset="0" stop-color="#eaf0f7" stop-opacity=".12"/><stop offset="1" stop-color="#d1dded"/></linearGradient><linearGradient id="vgkus" x1="1080.94" x2="1001.73" y1="2783.04" y2="2811.57" gradientUnits="userSpaceOnUse"><stop offset="0" stop-color="#95c4ff" stop-opacity=".12"/><stop offset="1" stop-color="#497ec5"/></linearGradient><linearGradient id="vgkuu" x1="1042.43" x2="1050.86" y1="2738.41" y2="2738.41" gradientUnits="userSpaceOnUse"><stop offset="0" stop-color="#b1c6e7"/><stop offset="1" stop-color="#e5effd"/></linearGradient><clipPath id="vgkuo"><use xlink:href="#vgkua"/></clipPath></defs><g><g transform="translate(-971 -2646)"><g><use fill="url(#vgkuc)" xlink:href="#vgkub"/></g><g><use fill="url(#vgkue)" xlink:href="#vgkud"/></g><g><use fill="url(#vgkug)" xlink:href="#vgkuf"/></g><g><use fill="#3d82f0" xlink:href="#vgkuh"/></g><g><use fill="#113275" xlink:href="#vgkui"/></g><g><use fill="#143b8c" xlink:href="#vgkuj"/></g><g><g><use fill="url(#vgkuk)" xlink:href="#vgkua"/><use fill="#baccee" stroke="#baccee" stroke-width="0" filter="url(#vgkum)" mask="url(&quot;#vgkun&quot;)" xlink:href="#vgkul"/></g><g clip-path="url(#vgkuo)"><use fill="url(#vgkuq)" xlink:href="#vgkup"/></g><g clip-path="url(#vgkuo)" opacity=".16"><use fill="url(#vgkus)" xlink:href="#vgkur"/></g></g><g><use fill="url(#vgkuu)" xlink:href="#vgkut"/></g></g></g></svg>