<svg xmlns="http://www.w3.org/2000/svg" xmlns:xlink="http://www.w3.org/1999/xlink" width="111" height="118" viewBox="0 0 111 118"><defs><path id="a2fwa" d="M1049.37 2998.02v-58.07h158.16v58.07z"/><path id="a2fwb" d="M1031.96 2998.02v-118.57h112.21v118.57z"/><path id="a2fwd" d="M1009 3029v-120h239v120zm181.53-37.98v-58.07h-158.16v58.07z"/><path id="a2fwi" d="M1014 3012v-146h148v146zm124.17-11.98v-118.57h-112.21v118.57z"/><path id="a2fwl" d="M1079.95 2942.03c4.44 2.17 9.12 2.16 11.05-1.8 1.94-3.96-1.55-8.45-5.99-10.61-4.44-2.17-8.64-2.16-10.57 1.8-1.94 3.96 1.07 8.44 5.5 10.61z"/><linearGradient id="a2fwc" x1="1112.72" x2="1152.31" y1="2952.76" y2="2952.76" gradientUnits="userSpaceOnUse"><stop offset="0" stop-color="#002b64"/><stop offset="1" stop-color="#0f3177"/></linearGradient><filter id="a2fwe" width="200%" height="200%" x="-50%" y="-50%"><feGaussianBlur in="SourceGraphic" result="FeGaussianBlur2489Out" stdDeviation="12 12"/></filter><mask id="a2fwf"><use fill="#fff" xlink:href="#a2fwa"/></mask><linearGradient id="a2fwg" x1="1125.4" x2="1051.95" y1="2912.11" y2="2965.85" gradientUnits="userSpaceOnUse"><stop offset="0" stop-color="#dbe9ff"/><stop offset=".44" stop-color="#a7bde4"/><stop offset="1" stop-color="#5876af"/></linearGradient><linearGradient id="a2fwh" x1="1107.01" x2="1102.15" y1="2966.72" y2="2979.53" gradientUnits="userSpaceOnUse"><stop offset="0" stop-color="#869fce" stop-opacity="0"/><stop offset="1" stop-color="#4975c1" stop-opacity=".23"/></linearGradient><filter id="a2fwj" width="200%" height="200%" x="-50%" y="-50%"><feGaussianBlur in="SourceGraphic" result="FeGaussianBlur2506Out" stdDeviation="6 6"/></filter><mask id="a2fwk"><use fill="#fff" xlink:href="#a2fwb"/></mask></defs><g><g transform="translate(-1033 -2880)"><g><use fill="url(#a2fwc)" xlink:href="#a2fwa"/><use fill="#3d82f0" fill-opacity=".78" stroke="#3d82f0" stroke-opacity=".78" stroke-width="0" filter="url(#a2fwe)" mask="url(&quot;#a2fwf&quot;)" xlink:href="#a2fwd"/></g><g><use fill="url(#a2fwg)" xlink:href="#a2fwb"/><use fill="url(#a2fwh)" xlink:href="#a2fwb"/><use fill="#fff" fill-opacity=".5" stroke="#fff" stroke-opacity=".5" stroke-width="0" filter="url(#a2fwj)" mask="url(&quot;#a2fwk&quot;)" xlink:href="#a2fwi"/></g><g><use fill="#d6e3fa" xlink:href="#a2fwl"/></g></g></g></svg>