<svg xmlns="http://www.w3.org/2000/svg" xmlns:xlink="http://www.w3.org/1999/xlink" width="31" height="32" viewBox="0 0 31 32"><defs><path id="i558a" d="M1163.06 2875.14c4.15 5.5 6.85 6.47 8.4 8.11 1.55 1.65 5.11 7.45 6.43 6.48 1.32-.96 2.69-2.87.63-6.48-2.05-3.6-5.16-7.4-4.08-9.31 1.08-1.91 6.35-7.55 10.75-8.86 4.4-1.31 5.87-.47 6.3-1.17.45-.7-5.26-1.73-7.6-2a42.87 42.87 0 0 0-10.49 0c-3.2.39-5.43-.95-6.69-3.99-5.2 7.8-6.41 13.54-3.65 17.22z"/></defs><g><g transform="translate(-1161 -2858)"><use fill="#143b8c" xlink:href="#i558a"/></g></g></svg>