<svg xmlns="http://www.w3.org/2000/svg" xmlns:xlink="http://www.w3.org/1999/xlink" width="102" height="101" viewBox="0 0 102 101"><defs><path id="2a3za" d="M824.96 2995.6v-90.01h44v90.01z"/><path id="2a3zb" d="M855.42 2994.63c1.32-29.12-2.3-47.5-13.69-64.85"/><path id="2a3zc" d="M802.23 3007.7v-59.05h54.65v59.05z"/><path id="2a3zd" d="M855.59 3007.1c-8.78-22.66-17.72-35.46-32.24-44.86"/><path id="2a3ze" d="M857.84 3008.67v-65.34h47.89v65.34z"/><path id="2a3zf" d="M858.57 3008.08c5.8-23.69 13.04-37.58 26.28-48.82"/><path id="2a3zh" d="M803 3027v-153h82v153zm65.97-41.4v-90.01h-44.01v90.01z"/><path id="2a3zn" d="M780 3039v-122h98v122zm76.88-41.3v-59.05h-54.65v59.05z"/><path id="2a3zt" d="M837 3041v-129h91v129zm68.73-42.33v-65.34h-47.89v65.34z"/><linearGradient id="2a3zg" x1="838.18" x2="854.69" y1="2910.54" y2="2994.63" gradientUnits="userSpaceOnUse"><stop offset="0" stop-color="#b1ffbe"/><stop offset=".44" stop-color="#5cdb8e"/><stop offset="1" stop-color="#149654"/></linearGradient><filter id="2a3zi" width="200%" height="200%" x="-50%" y="-50%"><feGaussianBlur in="SourceGraphic" result="FeGaussianBlur3379Out" stdDeviation="11 11"/></filter><mask id="2a3zj"><use fill="#fff" xlink:href="#2a3za"/></mask><clipPath id="2a3zl"><use fill="#fff" xlink:href="#2a3zb"/></clipPath><linearGradient id="2a3zm" x1="844.62" x2="850.85" y1="2944.16" y2="3000.51" gradientUnits="userSpaceOnUse"><stop offset="0" stop-color="#b1ffbe"/><stop offset=".44" stop-color="#5cdb8e"/><stop offset="1" stop-color="#149654"/></linearGradient><filter id="2a3zo" width="200%" height="200%" x="-50%" y="-50%"><feGaussianBlur in="SourceGraphic" result="FeGaussianBlur3405Out" stdDeviation="11 11"/></filter><mask id="2a3zp"><use fill="#fff" xlink:href="#2a3zc"/></mask><clipPath id="2a3zr"><use fill="#fff" xlink:href="#2a3zd"/></clipPath><linearGradient id="2a3zs" x1="875.17" x2="895.4" y1="2947.43" y2="3008.1" gradientUnits="userSpaceOnUse"><stop offset="0" stop-color="#b1ffbe"/><stop offset=".44" stop-color="#5cdb8e"/><stop offset="1" stop-color="#149654"/></linearGradient><filter id="2a3zu" width="200%" height="200%" x="-50%" y="-50%"><feGaussianBlur in="SourceGraphic" result="FeGaussianBlur3431Out" stdDeviation="11 11"/></filter><mask id="2a3zv"><use fill="#fff" xlink:href="#2a3ze"/></mask><clipPath id="2a3zx"><use fill="#fff" xlink:href="#2a3zf"/></clipPath><clipPath id="2a3zk"><use xlink:href="#2a3za"/></clipPath><clipPath id="2a3zq"><use xlink:href="#2a3zc"/></clipPath><clipPath id="2a3zw"><use xlink:href="#2a3ze"/></clipPath></defs><g><g transform="translate(-803 -2907)"><g><g><g><use fill="url(#2a3zg)" xlink:href="#2a3za"/><use fill="#38c79c" stroke="#38c79c" stroke-width="0" filter="url(#2a3zi)" mask="url(&quot;#2a3zj&quot;)" xlink:href="#2a3zh"/></g><g clip-path="url(#2a3zk)" opacity=".5"><use xlink:href="#2a3zb"/><use fill="#fff" fill-opacity="0" stroke="#489c71" stroke-miterlimit="50" stroke-width="6" clip-path="url(&quot;#2a3zl&quot;)" xlink:href="#2a3zb"/></g></g></g><g><g><g><use fill="url(#2a3zm)" xlink:href="#2a3zc"/><use fill="#38c79c" stroke="#38c79c" stroke-width="0" filter="url(#2a3zo)" mask="url(&quot;#2a3zp&quot;)" xlink:href="#2a3zn"/></g><g clip-path="url(#2a3zq)" opacity=".5"><use xlink:href="#2a3zd"/><use fill="#fff" fill-opacity="0" stroke="#489c71" stroke-miterlimit="50" stroke-width="6" clip-path="url(&quot;#2a3zr&quot;)" xlink:href="#2a3zd"/></g></g></g><g><g><g><use fill="url(#2a3zs)" xlink:href="#2a3ze"/><use fill="#38c79c" stroke="#38c79c" stroke-width="0" filter="url(#2a3zu)" mask="url(&quot;#2a3zv&quot;)" xlink:href="#2a3zt"/></g><g clip-path="url(#2a3zw)" opacity=".5"><use xlink:href="#2a3zf"/><use fill="#fff" fill-opacity="0" stroke="#489c71" stroke-miterlimit="50" stroke-width="6" clip-path="url(&quot;#2a3zx&quot;)" xlink:href="#2a3zf"/></g></g></g></g></g></svg>