<svg xmlns="http://www.w3.org/2000/svg" xmlns:xlink="http://www.w3.org/1999/xlink" width="128" height="129" viewBox="0 0 128 129"><defs><path id="qys0a" d="M1101.3 2976.97c0-19.53 16.36-79.98 38.45-113.05"/><path id="qys0b" d="M1115.7 2860.56c-4.9-8.5-6.69-16.66-3.97-18.23 2.71-1.57 8.9 4.06 13.8 12.56s6.69 16.66 3.97 18.23c-2.71 1.57-8.9-4.06-13.8-12.56z"/><path id="qys0d" d="M1152.79 2870.2c9.8-.35 17.85 1.91 17.96 5.04.1 3.14-7.76 5.95-17.57 6.3-9.8.34-17.85-1.92-17.96-5.05-.1-3.14 7.76-5.95 17.57-6.3z"/><path id="qys0f" d="M1142.51 2895.97c9.82.17 17.73 2.85 17.68 5.99-.06 3.13-8.06 5.53-17.87 5.36-9.82-.17-17.73-2.85-17.68-5.99.06-3.13 8.06-5.53 17.87-5.36z"/><path id="qys0h" d="M1133.9 2920.97c9.8.17 17.72 2.85 17.67 5.99-.06 3.13-8.06 5.53-17.87 5.36-9.82-.17-17.73-2.85-17.68-5.99.06-3.13 8.06-5.53 17.87-5.36z"/><path id="qys0j" d="M1146.57 2842.2c5.34-8.23 11.8-13.52 14.44-11.81 2.62 1.7.42 9.76-4.93 18-5.34 8.23-11.8 13.52-14.44 11.81-2.62-1.7-.42-9.76 4.93-18z"/><path id="qys0l" d="M1102.25 2888.72c-6.44-7.41-9.74-15.08-7.38-17.14 2.37-2.06 9.5 2.28 15.95 9.7 6.44 7.4 9.74 15.07 7.38 17.13-2.37 2.06-9.5-2.28-15.95-9.7z"/><path id="qys0n" d="M1092.1 2916.5c-7.18-6.7-11.27-13.99-9.13-16.28 2.13-2.29 9.69 1.28 16.87 7.97 7.17 6.7 11.26 13.99 9.12 16.28-2.13 2.29-9.69-1.28-16.87-7.97z"/><linearGradient id="qys0c" x1="1140.77" x2="1120.62" y1="2829.19" y2="2875.5" gradientUnits="userSpaceOnUse"><stop offset="0" stop-color="#cfddf3"/><stop offset="1" stop-color="#a1b8e3"/></linearGradient><linearGradient id="qys0e" x1="1173.14" x2="1152.98" y1="2847.33" y2="2893.63" gradientUnits="userSpaceOnUse"><stop offset="0" stop-color="#cfddf3"/><stop offset="1" stop-color="#a1b8e3"/></linearGradient><linearGradient id="qys0g" x1="1162.57" x2="1142.41" y1="2873.11" y2="2919.41" gradientUnits="userSpaceOnUse"><stop offset="0" stop-color="#cfddf3"/><stop offset="1" stop-color="#a1b8e3"/></linearGradient><linearGradient id="qys0i" x1="1153.98" x2="1133.8" y1="2898.11" y2="2944.41" gradientUnits="userSpaceOnUse"><stop offset="0" stop-color="#cfddf3"/><stop offset="1" stop-color="#a1b8e3"/></linearGradient><linearGradient id="qys0k" x1="1171.48" x2="1151.33" y1="2816.76" y2="2863.06" gradientUnits="userSpaceOnUse"><stop offset="0" stop-color="#cfddf3"/><stop offset="1" stop-color="#a1b8e3"/></linearGradient><linearGradient id="qys0m" x1="1126.69" x2="1106.53" y1="2856.46" y2="2902.77" gradientUnits="userSpaceOnUse"><stop offset="0" stop-color="#cfddf3"/><stop offset="1" stop-color="#a1b8e3"/></linearGradient><linearGradient id="qys0o" x1="1116.12" x2="1095.96" y1="2883.81" y2="2930.12" gradientUnits="userSpaceOnUse"><stop offset="0" stop-color="#cfddf3"/><stop offset="1" stop-color="#a1b8e3"/></linearGradient></defs><g><g opacity=".3" transform="rotate(-1 -159991 61259.98)"><g opacity=".3"><use fill="#fff" fill-opacity="0" stroke="#000" stroke-linecap="round" stroke-miterlimit="50" stroke-width="6" xlink:href="#qys0a"/></g><g opacity=".3"><use fill="url(#qys0c)" xlink:href="#qys0b"/></g><g opacity=".3"><use fill="url(#qys0e)" xlink:href="#qys0d"/></g><g opacity=".3"><use fill="url(#qys0g)" xlink:href="#qys0f"/></g><g opacity=".3"><use fill="url(#qys0i)" xlink:href="#qys0h"/></g><g opacity=".3"><use fill="url(#qys0k)" xlink:href="#qys0j"/></g><g opacity=".3"><use fill="url(#qys0m)" xlink:href="#qys0l"/></g><g opacity=".3"><use fill="url(#qys0o)" xlink:href="#qys0n"/></g></g></g></svg>