<svg xmlns="http://www.w3.org/2000/svg" xmlns:xlink="http://www.w3.org/1999/xlink" width="166" height="282" viewBox="0 0 166 282"><defs><path id="8caia" d="M1008.47 2979.54c-4.57 4.05-21.93-4.05-28.8-16.63-6.9-12.57 5.88-17.05-11.49-37.16-17.37-20.1-28.51-27.8-17.97-60.96 10.54-33.15-4.02-51.57 15.22-60.22 19.23-8.65 30.31 20.06 28.1 45.3-2.2 25.25 2.31 30.48 21.13 27.87 18.82-2.62 2.95 34.45 2.95 42.54 0 8.09 11.41 23.11 9.05 34.42-2.37 11.3-13.63 20.79-18.2 24.84z"/><path id="8caic" d="M997.48 2944.3c0-6.22 1.56-25.57 10.07-37.35"/><path id="8caid" d="M984.18 2908.06c0-6.2-17.38-10.57-25.89-22.35"/><path id="8caie" d="M1018.72 3008.62c0-2.64-4.54-14.55-8.87-28.35-13.58-43.2-35.46-96.42-35.46-133.29"/><linearGradient id="8caib" x1="971.72" x2="1026.98" y1="2786.64" y2="2891.8" gradientUnits="userSpaceOnUse"><stop offset="0" stop-color="#cfddf3"/><stop offset="1" stop-color="#a1b8e3"/></linearGradient></defs><g><g opacity=".3" transform="scale(-1 1) rotate(-31 -4575.4 3415.3)"><g opacity=".3"><use fill="url(#8caib)" xlink:href="#8caia"/></g><g opacity=".3"><use fill="#fff" fill-opacity="0" stroke="#000" stroke-linecap="round" stroke-miterlimit="50" stroke-width="6" xlink:href="#8caic"/></g><g opacity=".3"><use fill="#fff" fill-opacity="0" stroke="#000" stroke-linecap="round" stroke-miterlimit="50" stroke-width="6" xlink:href="#8caid"/></g><g opacity=".3"><use fill="#fff" fill-opacity="0" stroke="#000" stroke-linecap="round" stroke-miterlimit="50" stroke-width="6" xlink:href="#8caie"/></g></g></g></svg>