<svg xmlns="http://www.w3.org/2000/svg" xmlns:xlink="http://www.w3.org/1999/xlink" width="86" height="86" viewBox="0 0 86 86"><defs><path id="uaiwa" d="M1089.13 3586c-.36 0-.7-.14-.98-.4l-13.75-13.76a1.37 1.37 0 0 1 0-1.94l28.88-28.88a1.37 1.37 0 1 1 1.94 1.95l-27.9 27.9 11.8 11.8 27.9-27.9a1.37 1.37 0 1 1 1.95 1.95l-28.87 28.87c-.27.27-.62.4-.97.4z"/><path id="uaiwb" d="M1131.76 3543.38a1.37 1.37 0 0 1-.98-2.35l27.9-27.9-11.8-11.81-27.9 27.9a1.37 1.37 0 1 1-1.95-1.94l28.88-28.88c.53-.53 1.4-.53 1.94 0l13.75 13.75c.54.54.54 1.41 0 1.95l-28.87 28.87c-.27.27-.62.4-.97.4z"/><path id="uaiwc" d="M1082.24 3521.37a1.37 1.37 0 0 1-.97-2.35l13.75-13.75a1.37 1.37 0 1 1 1.95 1.95l-13.75 13.75c-.27.27-.62.4-.98.4z"/><path id="uaiwd" d="M1143.45 3579.25l15.35 3.54-3.55-15.35-65.48-65.48a4.23 4.23 0 0 0-5.85 0l-5.96 5.96a4.14 4.14 0 0 0 0 5.84l65.49 65.49zm17.18 6.75l-.31-.03-17.87-4.13a1.37 1.37 0 0 1-.67-.37l-65.76-65.76a6.9 6.9 0 0 1 0-9.73l5.96-5.97a6.86 6.86 0 0 1 9.73 0l65.77 65.77c.18.18.3.41.36.66l4.13 17.88a1.38 1.38 0 0 1-1.34 1.68z"/><path id="uaiwe" d="M1085 3570.87c-.35 0-.7-.13-.97-.4l-4.13-4.12a1.37 1.37 0 1 1 1.95-1.95l4.12 4.13a1.37 1.37 0 0 1-.97 2.34z"/><path id="uaiwf" d="M1090.5 3565.37c-.35 0-.7-.13-.97-.4l-4.13-4.12a1.37 1.37 0 1 1 1.95-1.95l4.12 4.13a1.37 1.37 0 0 1-.97 2.34z"/><path id="uaiwg" d="M1096 3559.87c-.35 0-.7-.13-.97-.4l-4.13-4.12a1.37 1.37 0 1 1 1.95-1.95l4.12 4.13a1.37 1.37 0 0 1-.97 2.34z"/><path id="uaiwh" d="M1101.5 3554.37c-.35 0-.7-.13-.97-.4l-4.13-4.12a1.37 1.37 0 1 1 1.95-1.95l4.12 4.13a1.37 1.37 0 0 1-.97 2.34z"/><path id="uaiwi" d="M1129 3526.87c-.35 0-.7-.13-.97-.4l-4.13-4.12a1.37 1.37 0 1 1 1.95-1.95l4.12 4.13a1.37 1.37 0 0 1-.97 2.34z"/><path id="uaiwj" d="M1134.5 3521.37c-.35 0-.7-.13-.97-.4l-4.13-4.12a1.37 1.37 0 1 1 1.95-1.95l4.12 4.13a1.37 1.37 0 0 1-.97 2.34z"/><path id="uaiwk" d="M1140 3515.87c-.35 0-.7-.13-.97-.4l-4.13-4.12a1.37 1.37 0 1 1 1.95-1.95l4.12 4.13a1.37 1.37 0 0 1-.97 2.34z"/><path id="uaiwl" d="M1145.5 3510.37c-.35 0-.7-.13-.97-.4l-4.13-4.12a1.37 1.37 0 1 1 1.95-1.95l4.12 4.13a1.37 1.37 0 0 1-.97 2.34z"/><path id="uaiwm" d="M1142.74 3581.87a1.37 1.37 0 0 1-.97-2.35l13.75-13.75a1.37 1.37 0 1 1 1.95 1.95l-13.75 13.75c-.27.27-.62.4-.98.4z"/><path id="uaiwn" d="M1151.68 3583.93a1.37 1.37 0 0 1-.97-2.34l6.88-6.88a1.37 1.37 0 1 1 1.94 1.95l-6.87 6.87c-.27.27-.62.4-.98.4z"/><path id="uaiwo" d="M1078.13 3517.25a1.37 1.37 0 0 1-.98-2.35l13.75-13.75a1.37 1.37 0 1 1 1.95 1.95l-13.75 13.75c-.27.27-.62.4-.97.4z"/><path id="uaiwp" d="M1152.38 3572.25c-.36 0-.7-.13-.98-.4l-60.5-60.5a1.37 1.37 0 1 1 1.95-1.95l60.5 60.5a1.37 1.37 0 0 1-.97 2.35z"/><path id="uaiwq" d="M1146.88 3577.75c-.36 0-.7-.13-.98-.4l-60.5-60.5a1.37 1.37 0 1 1 1.95-1.95l60.5 60.5a1.37 1.37 0 0 1-.97 2.35z"/><path id="uaiwr" d="M1118 3521.38a1.38 1.38 0 0 1-.96-2.35c.48-.5 1.43-.51 1.94 0a1.4 1.4 0 0 1 0 1.95c-.26.25-.62.4-.98.4z"/><path id="uaiws" d="M1118 3515.88a1.38 1.38 0 0 1-.96-2.35c.48-.5 1.42-.51 1.94 0 .25.26.4.6.4.97 0 .36-.15.72-.4.98-.26.25-.62.4-.98.4z"/><path id="uaiwt" d="M1118 3510.37c-.35 0-.71-.15-.97-.4-.25-.26-.4-.61-.4-.97s.15-.72.4-.98c.52-.5 1.43-.5 1.95 0 .25.26.4.62.4.98s-.15.71-.4.97c-.26.25-.62.4-.98.4z"/><path id="uaiwu" d="M1118 3504.87c-.35 0-.71-.15-.97-.4-.25-.26-.4-.61-.4-.97s.15-.72.4-.98c.52-.5 1.44-.5 1.95 0 .25.26.4.62.4.98a1.4 1.4 0 0 1-1.38 1.37z"/><path id="uaiwv" d="M1118 3581.87c-.35 0-.71-.15-.97-.4-.25-.26-.4-.61-.4-.97 0-.37.15-.72.4-.98.52-.5 1.43-.5 1.95 0 .25.26.4.6.4.98 0 .36-.15.71-.4.97-.26.25-.62.4-.98.4z"/><path id="uaiww" d="M1118 3576.37c-.35 0-.71-.15-.97-.4-.25-.26-.4-.61-.4-.97 0-.37.15-.72.4-.98.52-.5 1.44-.5 1.95 0 .25.26.4.62.4.98s-.15.71-.4.97c-.26.25-.62.4-.98.4z"/><path id="uaiwx" d="M1118 3570.87c-.35 0-.71-.15-.97-.4-.25-.26-.4-.61-.4-.97 0-.37.15-.72.4-.98.5-.5 1.43-.5 1.95 0 .25.26.4.62.4.98s-.15.71-.4.97c-.26.25-.62.4-.98.4z"/><path id="uaiwy" d="M1118 3565.37c-.35 0-.71-.15-.97-.4-.25-.26-.4-.61-.4-.97s.15-.72.4-.98c.5-.5 1.43-.5 1.95 0 .25.26.4.62.4.98s-.15.71-.4.97c-.26.25-.62.4-.98.4z"/><path id="uaiwz" d="M1140 3543.37a1.38 1.38 0 0 1-1.37-1.37c0-.37.15-.72.4-.98.5-.5 1.44-.5 1.95 0 .25.26.4.6.4.98 0 .37-.15.71-.4.97-.26.25-.6.4-.98.4z"/><path id="uaiwA" d="M1145.5 3543.37c-.35 0-.71-.15-.97-.4-.25-.26-.4-.61-.4-.97s.15-.72.4-.98c.52-.5 1.44-.5 1.95 0 .25.26.4.62.4.98s-.15.71-.41.97c-.25.25-.6.4-.97.4z"/><path id="uaiwB" d="M1151 3543.37c-.35 0-.71-.15-.97-.4-.25-.26-.4-.61-.4-.97s.15-.72.4-.98c.52-.5 1.43-.5 1.95 0 .25.26.4.62.4.98s-.15.71-.4.97c-.26.25-.62.4-.98.4z"/><path id="uaiwC" d="M1156.5 3543.37a1.4 1.4 0 0 1-.97-.4c-.25-.26-.4-.6-.4-.97s.15-.72.4-.98c.5-.5 1.43-.5 1.95 0 .25.26.4.62.4.98s-.15.71-.4.97c-.26.25-.62.4-.98.4z"/><path id="uaiwD" d="M1079.5 3543.37c-.35 0-.71-.15-.97-.4-.25-.26-.4-.61-.4-.97s.15-.72.4-.98c.52-.5 1.44-.5 1.95 0a1.38 1.38 0 0 1-.98 2.35z"/><path id="uaiwE" d="M1085 3543.37c-.35 0-.71-.15-.97-.4-.25-.26-.4-.61-.4-.97s.15-.72.4-.98c.52-.5 1.43-.5 1.95 0 .25.26.4.62.4.98s-.15.71-.4.97c-.26.25-.62.4-.98.4z"/><path id="uaiwF" d="M1090.5 3543.37a1.4 1.4 0 0 1-.97-.4c-.25-.26-.4-.6-.4-.97s.15-.72.4-.98c.5-.5 1.43-.5 1.95 0 .25.26.4.62.4.98s-.15.71-.4.97c-.26.25-.62.4-.98.4z"/><path id="uaiwG" d="M1096 3543.37a1.38 1.38 0 0 1-1.37-1.37c0-.37.15-.72.4-.98.5-.5 1.44-.5 1.95 0 .25.26.4.6.4.98 0 .37-.15.71-.4.97-.26.25-.62.4-.98.4z"/></defs><g><g transform="translate(-1074 -3498)"><g><g><g><g><use fill="#5153d4" xlink:href="#uaiwa"/></g></g><g><g><use fill="#5153d4" xlink:href="#uaiwb"/></g></g><g><g><use fill="#5153d4" xlink:href="#uaiwc"/></g></g><g><g><use fill="#5153d4" xlink:href="#uaiwd"/></g></g><g><g><use fill="#5153d4" xlink:href="#uaiwe"/></g></g><g><g><use fill="#5153d4" xlink:href="#uaiwf"/></g></g><g><g><use fill="#5153d4" xlink:href="#uaiwg"/></g></g><g><g><use fill="#5153d4" xlink:href="#uaiwh"/></g></g><g><g><use fill="#5153d4" xlink:href="#uaiwi"/></g></g><g><g><use fill="#5153d4" xlink:href="#uaiwj"/></g></g><g><g><use fill="#5153d4" xlink:href="#uaiwk"/></g></g><g><g><use fill="#5153d4" xlink:href="#uaiwl"/></g></g><g><g><use fill="#5153d4" xlink:href="#uaiwm"/></g></g><g><g><use fill="#5153d4" xlink:href="#uaiwn"/></g></g><g><g><use fill="#5153d4" xlink:href="#uaiwo"/></g></g><g><g><use fill="#5153d4" xlink:href="#uaiwp"/></g></g><g><g><use fill="#5153d4" xlink:href="#uaiwq"/></g></g><g><g><g><use fill="#5153d4" xlink:href="#uaiwr"/></g></g><g><g><use fill="#5153d4" xlink:href="#uaiws"/></g></g><g><g><use fill="#5153d4" xlink:href="#uaiwt"/></g></g><g><g><use fill="#5153d4" xlink:href="#uaiwu"/></g></g></g><g><g><g><use fill="#5153d4" xlink:href="#uaiwv"/></g></g><g><g><use fill="#5153d4" xlink:href="#uaiww"/></g></g><g><g><use fill="#5153d4" xlink:href="#uaiwx"/></g></g><g><g><use fill="#5153d4" xlink:href="#uaiwy"/></g></g></g><g><g><g><use fill="#5153d4" xlink:href="#uaiwz"/></g></g><g><g><use fill="#5153d4" xlink:href="#uaiwA"/></g></g><g><g><use fill="#5153d4" xlink:href="#uaiwB"/></g></g><g><g><use fill="#5153d4" xlink:href="#uaiwC"/></g></g></g><g><g><g><use fill="#5153d4" xlink:href="#uaiwD"/></g></g><g><g><use fill="#5153d4" xlink:href="#uaiwE"/></g></g><g><g><use fill="#5153d4" xlink:href="#uaiwF"/></g></g><g><g><use fill="#5153d4" xlink:href="#uaiwG"/></g></g></g></g></g></g></g></svg>