<svg xmlns="http://www.w3.org/2000/svg" xmlns:xlink="http://www.w3.org/1999/xlink" width="65" height="1" viewBox="0 0 65 1"><defs><path id="gbmea" d="M610.47 8811.29c2.72-4.55 7.53-3.72 9.93-1.45 2.62 2.48 3.14 5.37 2.1 7.34-1.36 2.68-4.92 5.88-7.22 2.79-1.04-1.45-3.13-3.1-4.39-3.52-1.78-.82-2.09-2.37-.42-5.16zm-14.1 36.78c-.95-1.24-1.68-1.35-2.83-1.65-1.46-.42-1.57-2.59 1.25-2.59 1.68-.1 3.87.2 5.34.73 1.67.4 2.19 2.48 0 2.68-3.35.31-2.93 2.48-3.77.83zm-1.68-13.54c-2.3 1.76-3.76 6.82-7.84 5.07-3.34-1.66-3.66-8.06 2.1-11.06 3.96-1.86 5.95 1.76 5.95 5.58 0 .1-.1.31-.21.41zm8.15.42c1.26-3.31 3.14-6 6.59-4.03 4.28 2.58 4.28 9.6 1.15 11.26-5.33 2.79-5.54-4.24-7.63-6.51-.21-.2-.21-.41-.1-.72zm18.08 49.28c.73 0 1.36.62 1.35 1.34 0 .73-.62 1.35-1.35 1.35h-7v4.03h4.8c.63 0 1.26.62 1.26 1.34 0 .62-.63 1.24-1.26 1.24h-4.8v7.13a1.2 1.2 0 0 1-1.26 1.24h-3.23c-.73 0-1.26-.52-1.36-1.24v-15.19c0-.72.52-1.24 1.25-1.24zm-16.1 0c.74 0 1.37.62 1.37 1.34 0 .2 0 .42-.1.62l-5.86 14.88c-.2.52-.73.93-1.36.93-.62 0-1.25-.41-1.36-1.03l-2.92-8.58-.21-.83-.32.83-3.45 8.68c-.2.52-.73.93-1.35.93-.63 0-1.16-.41-1.36-1.03l-4.92-14.67c-.1-.21-.2-.42-.2-.62 0-.83.62-1.35 1.35-1.45h3.35c.62 0 1.15.41 1.25.93l.1.1 2 6.51.2.73.31-.73 1.57-4.03-.42-1.44c-.1-.21-.1-.42-.1-.62 0-.83.52-1.35 1.26-1.45h3.34c.63 0 1.15.41 1.36.93v.1l2.09 6.51.2.73.22-.73 2.61-6.71c.2-.52.73-.83 1.36-.83zm-24.76 0c.73 0 1.35.62 1.35 1.34 0 .2 0 .42-.1.62l-5.85 14.88c-.21.52-.74.93-1.36.93-.63 0-1.26-.41-1.36-1.03l-2.93-8.58-.2-.83-.32.83-3.45 8.68c-.21.52-.73.93-1.36.93-.63 0-1.15-.41-1.36-1.03l-4.91-14.67c-.1-.21-.21-.42-.21-.62 0-.83.63-1.35 1.36-1.45h3.34c.63 0 1.15.41 1.26.93h.1v.1l1.99 6.51.2.73.32-.73 1.57-4.03-.42-1.44c0-.21-.1-.42-.1-.62 0-.83.52-1.35 1.25-1.45h3.35c.62 0 1.15.41 1.36.93v.1l2.09 6.51.2.73.21-.73 2.62-6.71c.2-.52.73-.83 1.36-.83z"/></defs><g><g opacity=".5" transform="translate(-558 -8808)"><use fill="#040404" xlink:href="#gbmea"/></g></g></svg>