<svg id="SVGDoc" width="207" height="245" xmlns="http://www.w3.org/2000/svg" version="1.1" xmlns:xlink="http://www.w3.org/1999/xlink" xmlns:avocode="https://avocode.com/" viewBox="0 0 207 245"><defs><path d="M1271.05,10740.66338c0,-55.73818 46.59215,-228.22997 109.48261,-322.61338" id="Path-0"/><path d="M1312.0557,10408.4525c-14.00594,-24.259 -19.0923,-47.54347 -11.3607,-52.00731c7.7316,-4.46384 25.35336,11.58331 39.3593,35.84231c14.00594,24.259 19.0923,47.54347 11.3607,52.00731c-7.7316,4.46384 -25.35336,-11.58331 -39.3593,-35.84231z" id="Path-1"/><path d="M1417.65085,10435.96485c27.99482,-0.9776 50.94168,5.46281 51.25325,14.38505c0.31157,8.92224 -22.13013,16.94765 -50.12495,17.92526c-27.99482,0.9776 -50.94168,-5.46281 -51.25325,-14.38505c-0.31157,-8.92224 22.13013,-16.94765 50.12495,-17.92526z" id="Path-2"/><path d="M1388.39712,10509.53746c28.00762,0.48887 50.58597,8.1214 50.43016,17.04772c-0.15581,8.92632 -22.98678,15.76623 -50.99439,15.27735c-28.00762,-0.48887 -50.58597,-8.1214 -50.43016,-17.04772c0.15581,-8.92632 22.98678,-15.76623 50.99439,-15.27735z" id="Path-3"/><path d="M1363.86712,10580.87746c28.00762,0.48887 50.58597,8.1214 50.43016,17.04772c-0.15581,8.92632 -22.98678,15.76623 -50.99439,15.27735c-28.00762,-0.48887 -50.58597,-8.1214 -50.43016,-17.04772c0.15581,-8.92632 22.98678,-15.76623 50.99439,-15.27735z" id="Path-4"/><path d="M1399.92789,10356.08591c15.25636,-23.49274 33.69382,-38.59565 41.1812,-33.73328c7.48738,4.86236 1.18938,27.84872 -14.06698,51.34146c-15.25636,23.49274 -33.69382,38.59565 -41.1812,33.73328c-7.48738,-4.86236 -1.18938,-27.84872 14.06698,-51.34146z" id="Path-5"/><path d="M1273.75512,10488.80519c-18.37745,-21.14084 -27.81324,-43.02698 -21.07543,-48.88406c6.73781,-5.85709 27.09774,6.53284 45.47519,27.67368c18.37745,21.14084 27.81324,43.02698 21.07543,48.88406c-6.73781,5.85709 -27.09774,-6.53284 -45.47519,-27.67368z" id="Path-6"/><path d="M1244.8305,10568.06233c-20.48659,-19.10406 -32.15842,-39.884 -26.06976,-46.41329c6.08867,-6.52929 27.63217,3.66457 48.11876,22.76862c20.48659,19.10406 32.15842,39.884 26.06976,46.41329c-6.08867,6.52929 -27.63217,-3.66457 -48.11876,-22.76862z" id="Path-7"/></defs><desc>Generated with Avocode.</desc><g transform="matrix(1,0,0,1,-1233,-10306)"><g opacity="0.3" clip-path="url(#clip-2CB1F5C7-F72E-41FC-9B73-153328416DBF)" transform="matrix(-0.7431448254773942,0.6691306063588582,0.6691306063588582,0.7431448254773942,-4672.802754812827,1793.720920387057)"><title>plant</title><g opacity="0.3"><title>stem</title><use xlink:href="#Path-0" fill-opacity="0" fill="#ffffff" stroke-linejoin="miter" stroke-linecap="round" stroke-opacity="1" stroke="#ffffff" stroke-miterlimit="50" stroke-width="6"/></g><g opacity="0.3"><title>leaf</title><use xlink:href="#Path-1" fill="#ffffff" fill-opacity="1"/></g><g opacity="0.3"><title>leaf</title><use xlink:href="#Path-2" fill="#ffffff" fill-opacity="1"/></g><g opacity="0.3"><title>leaf</title><use xlink:href="#Path-3" fill="#ffffff" fill-opacity="1"/></g><g opacity="0.3"><title>leaf</title><use xlink:href="#Path-4" fill="#a1b8e3" fill-opacity="1"/></g><g opacity="0.3"><title>leaf</title><use xlink:href="#Path-5" fill="#ffffff" fill-opacity="1"/></g><g opacity="0.3"><title>leaf</title><use xlink:href="#Path-6" fill="#ffffff" fill-opacity="1"/></g><g opacity="0.3"><title>leaf</title><use xlink:href="#Path-7" fill="#a1b8e3" fill-opacity="1"/></g></g></g></svg>