<svg xmlns="http://www.w3.org/2000/svg" xmlns:xlink="http://www.w3.org/1999/xlink" width="66" height="4" viewBox="0 0 66 4"><defs><path id="c29oa" d="M610.47 8811.29c2.72-4.55 7.53-3.72 9.93-1.45 2.62 2.48 3.14 5.37 2.1 7.34-1.36 2.68-4.92 5.88-7.22 2.79-1.04-1.45-3.13-3.1-4.39-3.52-1.78-.82-2.09-2.37-.42-5.16zm-14.1 36.78c-.95-1.24-1.68-1.35-2.83-1.65-1.46-.42-1.57-2.59 1.25-2.59 1.68-.1 3.87.2 5.34.73 1.67.4 2.19 2.48 0 2.68-3.35.31-2.93 2.48-3.77.83zm-1.68-13.54c-2.3 1.76-3.76 6.82-7.84 5.07-3.34-1.66-3.66-8.06 2.1-11.06 3.96-1.86 5.95 1.76 5.95 5.58 0 .1-.1.31-.21.41zm8.15.42c1.26-3.31 3.14-6 6.59-4.03 4.28 2.58 4.28 9.6 1.15 11.26-5.33 2.79-5.54-4.24-7.63-6.51-.21-.2-.21-.41-.1-.72zm18.08 49.28c.73 0 1.36.62 1.35 1.34 0 .73-.62 1.35-1.35 1.35h-7v4.03h4.8c.63 0 1.26.62 1.26 1.34 0 .62-.63 1.24-1.26 1.24h-4.8v7.13a1.2 1.2 0 0 1-1.26 1.24h-3.23c-.73 0-1.26-.52-1.36-1.24v-15.19c0-.72.52-1.24 1.25-1.24zm-16.1 0c.74 0 1.37.62 1.37 1.34 0 .2 0 .42-.1.62l-5.86 14.88c-.2.52-.73.93-1.36.93-.62 0-1.25-.41-1.36-1.03l-2.92-8.58-.21-.83-.32.83-3.45 8.68c-.2.52-.73.93-1.35.93-.63 0-1.16-.41-1.36-1.03l-4.92-14.67c-.1-.21-.2-.42-.2-.62 0-.83.62-1.35 1.35-1.45h3.35c.62 0 1.15.41 1.25.93l.1.1 2 6.51.2.73.31-.73 1.57-4.03-.42-1.44c-.1-.21-.1-.42-.1-.62 0-.83.52-1.35 1.26-1.45h3.34c.63 0 1.15.41 1.36.93v.1l2.09 6.51.2.73.22-.73 2.61-6.71c.2-.52.73-.83 1.36-.83zm-24.76 0c.73 0 1.35.62 1.35 1.34 0 .2 0 .42-.1.62l-5.85 14.88c-.21.52-.74.93-1.36.93-.63 0-1.26-.41-1.36-1.03l-2.93-8.58-.2-.83-.32.83-3.45 8.68c-.21.52-.73.93-1.36.93-.63 0-1.15-.41-1.36-1.03l-4.91-14.67c-.1-.21-.21-.42-.21-.62 0-.83.63-1.35 1.36-1.45h3.34c.63 0 1.15.41 1.26.93h.1v.1l1.99 6.51.2.73.32-.73 1.57-4.03-.42-1.44c0-.21-.1-.42-.1-.62 0-.83.52-1.35 1.25-1.45h3.35c.62 0 1.15.41 1.36.93v.1l2.09 6.51.2.73.21-.73 2.62-6.71c.2-.52.73-.83 1.36-.83z"/><path id="c29ob" d="M599.91 8852.42c-1.24 3.1-7.35 2.07-7.56-1.03 0-.1.2-.1.2 0 2.8.62 5.4.93 7.15.93.1 0 .21-.1.21.1zm20.92-20.77c-.2-.82-.62-.72-.62-.1.2 8.27-4.76 17.15-15.33 17.25-2.69 0-1.86 4.24-6.83 2.07-3.53-2.38-5.6 2.38-8.08-2.69-.62-1.44-1.45-2.06-2.49-2.37-10.46-2.58-13.77-16.94-4.56-28.52 1.76 1.14 2.49 1.35 4.46-.51.93-.93 2.7-1.97 3.62-2.27 2.18-.83 3.42-1.76 1.45-6-.9-2-2.14-3.06-3.45-3.51h-3.52c-1 .3-1.95.79-2.76 1.45-2.7 2.17-4.46 5.58-1.14 9.6-9.32 6.3-10.98 14.05-10.77 20.87.2 7.13-1.56 6.51.72 13.74.2.62-.31.62-.62.42-9.74-6.2-15.02-25.21.2-35.65.32-.3.21-.72-1.03 0-13.15 6.93-14.4 20.36-12.22 29.45 1.03 4.34-.52 5.16 1.14 10.95 3.93 11.98 7.25 13.02 12.01 13.33 8.6 0 2.7-4.76 3.11-10.64 0-.42.41-.52.62.2 4.77 10.54 8.08 20.15 20.5 19.22 7.16-.93 3.22-4.44 2.7-6.51-5.28-17.46 7.56-21.6 3.94-4.55-2.38 9.82 5.18 8.78 10.56 5.27 5.5-3.51 12.33-27.38 8.4-40.5z"/></defs><g><g opacity=".5" transform="translate(-557 -8805)"><use fill="#040404" xlink:href="#c29oa"/></g><g opacity=".5" transform="translate(-557 -8805)"><use xlink:href="#c29ob"/></g></g></svg>