<svg xmlns="http://www.w3.org/2000/svg" xmlns:xlink="http://www.w3.org/1999/xlink" width="204" height="228" viewBox="0 0 204 228"><defs><path id="julja" d="M1210.8 3425.36c-10.14-17.57-13.82-34.43-8.21-37.67 5.6-3.24 18.38 8.38 28.52 25.95s13.82 34.43 8.21 37.67c-5.6 3.24-18.38-8.38-28.52-25.95z"/><path id="juljb" d="M1287.39 3445.25c20.27-.7 36.89 3.97 37.11 10.44.23 6.47-16.02 12.29-36.3 13-20.27.7-36.89-3.97-37.11-10.44-.23-6.47 16.02-12.29 36.3-13z"/><path id="juljc" d="M1266.17 3498.53c20.28.35 36.63 5.89 36.52 12.36-.11 6.48-16.65 11.44-36.93 11.08-20.28-.35-36.63-5.89-36.52-12.36.11-6.48 16.65-11.44 36.93-11.08z"/><path id="juljd" d="M1248.38 3550.2c20.28.35 36.63 5.89 36.52 12.36-.11 6.48-16.65 11.44-36.93 11.08-20.28-.35-36.63-5.89-36.52-12.36.11-6.48 16.65-11.44 36.93-11.08z"/><path id="julje" d="M1274.53 3387.41c11.05-17 24.4-27.94 29.84-24.41 5.43 3.52.88 20.17-10.17 37.19-11.05 17-24.4 27.94-29.84 24.41-5.43-3.52-.88-20.17 10.17-37.19z"/><path id="juljf" d="M1183.02 3483.55c-13.31-15.3-20.14-31.16-15.25-35.41 4.89-4.25 19.64 4.72 32.94 20.03 13.31 15.3 20.14 31.16 15.25 35.41-4.89 4.25-19.64-4.72-32.94-20.03z"/><path id="juljg" d="M1162.04 3540.95c-14.84-13.84-23.28-28.9-18.87-33.63 4.42-4.74 20.03 2.64 34.86 16.47 14.84 13.84 23.28 28.9 18.87 33.63-4.42 4.74-20.03-2.64-34.86-16.47z"/><path id="juljh" d="M1134.5 3521.37c-.35 0-.7-.13-.97-.4l-4.13-4.12a1.37 1.37 0 1 1 1.95-1.95l4.12 4.13a1.37 1.37 0 0 1-.97 2.34z"/><path id="julji" d="M1140 3515.87c-.35 0-.7-.13-.97-.4l-4.13-4.12a1.37 1.37 0 1 1 1.95-1.95l4.12 4.13a1.37 1.37 0 0 1-.97 2.34z"/><path id="juljj" d="M1145.5 3510.37c-.35 0-.7-.13-.97-.4l-4.13-4.12a1.37 1.37 0 1 1 1.95-1.95l4.12 4.13a1.37 1.37 0 0 1-.97 2.34z"/><path id="juljk" d="M1142.74 3581.87a1.37 1.37 0 0 1-.97-2.35l13.75-13.75a1.37 1.37 0 1 1 1.95 1.95l-13.75 13.75c-.27.27-.62.4-.98.4z"/><path id="juljl" d="M1151.68 3583.93a1.37 1.37 0 0 1-.97-2.34l6.88-6.88a1.37 1.37 0 1 1 1.94 1.95l-6.87 6.87c-.27.27-.62.4-.98.4z"/><path id="juljm" d="M1140 3543.37a1.38 1.38 0 0 1-1.37-1.37c0-.37.15-.72.4-.98.5-.5 1.44-.5 1.95 0 .25.26.4.6.4.98 0 .37-.15.71-.4.97-.26.25-.6.4-.98.4z"/><path id="juljn" d="M1145.5 3543.37c-.35 0-.71-.15-.97-.4-.25-.26-.4-.61-.4-.97s.15-.72.4-.98c.52-.5 1.44-.5 1.95 0 .25.26.4.62.4.98s-.15.71-.41.97c-.25.25-.6.4-.97.4z"/><path id="juljo" d="M1151 3543.37c-.35 0-.71-.15-.97-.4-.25-.26-.4-.61-.4-.97s.15-.72.4-.98c.52-.5 1.43-.5 1.95 0 .25.26.4.62.4.98s-.15.71-.4.97c-.26.25-.62.4-.98.4z"/><path id="juljp" d="M1156.5 3543.37a1.4 1.4 0 0 1-.97-.4c-.25-.26-.4-.6-.4-.97s.15-.72.4-.98c.5-.5 1.43-.5 1.95 0 .25.26.4.62.4.98s-.15.71-.4.97c-.26.25-.62.4-.98.4z"/></defs><g><g opacity=".2" transform="translate(-1129 -3351)"><use fill="#a1b8e3" xlink:href="#julja"/></g><g opacity=".2" transform="translate(-1129 -3351)"><use fill="#a1b8e3" xlink:href="#juljb"/></g><g opacity=".2" transform="translate(-1129 -3351)"><use fill="#a1b8e3" xlink:href="#juljc"/></g><g opacity=".2" transform="translate(-1129 -3351)"><use fill="#a1b8e3" xlink:href="#juljd"/></g><g opacity=".2" transform="translate(-1129 -3351)"><use fill="#a1b8e3" xlink:href="#julje"/></g><g opacity=".2" transform="translate(-1129 -3351)"><use fill="#a1b8e3" xlink:href="#juljf"/></g><g opacity=".2" transform="translate(-1129 -3351)"><use fill="#a1b8e3" xlink:href="#juljg"/></g><g transform="translate(-1129 -3351)"><g><use fill="#5153d4" xlink:href="#juljh"/></g></g><g transform="translate(-1129 -3351)"><g><use fill="#5153d4" xlink:href="#julji"/></g></g><g transform="translate(-1129 -3351)"><g><use fill="#5153d4" xlink:href="#juljj"/></g></g><g transform="translate(-1129 -3351)"><g><use fill="#5153d4" xlink:href="#juljk"/></g></g><g transform="translate(-1129 -3351)"><g><use fill="#5153d4" xlink:href="#juljl"/></g></g><g transform="translate(-1129 -3351)"><g><g><use fill="#5153d4" xlink:href="#juljm"/></g></g><g><g><use fill="#5153d4" xlink:href="#juljn"/></g></g><g><g><use fill="#5153d4" xlink:href="#juljo"/></g></g><g><g><use fill="#5153d4" xlink:href="#juljp"/></g></g></g></g></svg>