<svg id="SVGDoc" width="159" height="123" xmlns="http://www.w3.org/2000/svg" version="1.1" xmlns:xlink="http://www.w3.org/1999/xlink" xmlns:avocode="https://avocode.com/" viewBox="0 0 159 123"><defs><path d="M109.19,10454.93894c0,-33.15627 27.71569,-135.76427 65.12654,-191.90894" id="Path-0"/><path d="M133.57817,10257.3175c-8.33122,-14.43009 -11.35695,-28.28038 -6.75817,-30.93549c4.59878,-2.65511 15.08062,6.8904 23.41183,21.32049c8.33122,14.43009 11.35695,28.28038 6.75817,30.93549c-4.59878,2.65511 -15.08062,-6.8904 -23.41183,-21.32049z" id="Path-1"/><path d="M196.38944,10273.69086c16.65228,-0.58151 30.30186,3.24924 30.48718,8.55622c0.18532,5.30698 -13.16378,10.08055 -29.81606,10.66206c-16.65228,0.58151 -30.30186,-3.24924 -30.48718,-8.55622c-0.18532,-5.30698 13.16378,-10.08055 29.81606,-10.66206z" id="Path-2"/><path d="M178.9928,10317.44646c16.65989,0.2908 30.09028,4.83067 29.9976,10.14007c-0.09268,5.30941 -13.67332,9.3778 -30.33321,9.087c-16.65989,-0.2908 -30.09028,-4.83067 -29.9976,-10.14007c0.09268,-5.30941 13.67332,-9.3778 30.33321,-9.087z" id="Path-3"/><path d="M164.4028,10359.89646c16.65989,0.2908 30.09028,4.83067 29.9976,10.14007c-0.09268,5.30941 -13.67332,9.3778 -30.33321,9.087c-16.65989,-0.2908 -30.09028,-4.83067 -29.9976,-10.14007c0.09268,-5.30941 13.67332,-9.3778 30.33321,-9.087z" id="Path-4"/><path d="M185.85118,10226.1733c9.07501,-13.97429 20.04205,-22.95814 24.49558,-20.06599c4.45352,2.89215 0.70707,16.5651 -8.36794,30.5394c-9.07501,13.97429 -20.04205,22.95814 -24.49558,20.06599c-4.45352,-2.89215 -0.70707,-16.5651 8.36794,-30.5394z" id="Path-5"/><path d="M110.79847,10305.11801c-10.93154,-12.5753 -16.54444,-25.59378 -12.53677,-29.07759c4.00767,-3.48382 16.1183,3.88628 27.04983,16.46158c10.93154,12.5753 16.54444,25.59378 12.53677,29.07759c-4.00767,3.48382 -16.1183,-3.88628 -27.04983,-16.46158z" id="Path-6"/><path d="M93.58759,10352.26197c-12.18613,-11.36375 -19.12909,-23.72421 -15.50753,-27.60786c3.62156,-3.88365 16.43622,2.18017 28.62235,13.54392c12.18613,11.36375 19.12909,23.72421 15.50753,27.60786c-3.62156,3.88365 -16.43622,-2.18017 -28.62235,-13.54392z" id="Path-7"/></defs><desc>Generated with Avocode.</desc><g transform="matrix(1,0,0,1,-52,-10296)"><g opacity="0.3" clip-path="url(#clip-2CB1F5C7-F72E-41FC-9B73-153328416DBF)" transform="matrix(0.5446390350150272,-0.8386705679454239,-0.8386705679454239,-0.5446390350150272,8732.968592510288,16084.127302330036)"><title>plant copy</title><g opacity="0.3"><title>stem</title><use xlink:href="#Path-0" fill-opacity="0" fill="#ffffff" stroke-linejoin="miter" stroke-linecap="round" stroke-opacity="1" stroke="#ffffff" stroke-miterlimit="50" stroke-width="6"/></g><g opacity="0.3"><title>leaf</title><use xlink:href="#Path-1" fill="#ffffff" fill-opacity="1"/></g><g opacity="0.3"><title>leaf</title><use xlink:href="#Path-2" fill="#ffffff" fill-opacity="1"/></g><g opacity="0.3"><title>leaf</title><use xlink:href="#Path-3" fill="#ffffff" fill-opacity="1"/></g><g opacity="0.3"><title>leaf</title><use xlink:href="#Path-4" fill="#ffffff" fill-opacity="1"/></g><g opacity="0.3"><title>leaf</title><use xlink:href="#Path-5" fill="#ffffff" fill-opacity="1"/></g><g opacity="0.3"><title>leaf</title><use xlink:href="#Path-6" fill="#ffffff" fill-opacity="1"/></g><g opacity="0.3"><title>leaf</title><use xlink:href="#Path-7" fill="#a1b8e3" fill-opacity="1"/></g></g></g></svg>