<svg xmlns="http://www.w3.org/2000/svg" xmlns:xlink="http://www.w3.org/1999/xlink" width="290" height="310" viewBox="0 0 290 310"><defs><path id="616ta" d="M444.84 3962.04V3872h44.23v90.04z"/><path id="616tb" d="M475.46 3961.07c1.33-29.13-2.31-47.51-13.76-64.87"/><path id="616tc" d="M422 3974.14v-59.06h54.92v59.06z"/><path id="616td" d="M475.61 3973.53c-8.81-22.65-17.8-35.46-32.38-44.86"/><path id="616te" d="M477.89 3975.12v-65.36H526v65.36z"/><path id="616tf" d="M478.62 3974.52c5.83-23.69 13.12-37.6 26.43-48.83"/><path id="616tg" d="M692.88 4019.62c.97-1.03 6.05-4.25 8.22-2.3"/><path id="616th" d="M492.18 4040.44c1.09.97 4.47 6.05 2.42 8.23"/><path id="616ti" d="M497.02 4038.02c1.09.97 4.47 6.05 2.42 8.23"/><path id="616tj" d="M501.85 4036.08c1.09.97 4.47 6.05 2.42 8.23"/><path id="616tk" d="M507.18 3889.35V3731h87.53v158.35z"/><path id="616tp" d="M441.44 4009v-13.55h59.78V4009z"/><path id="616tr" d="M442.89 4008.04v-44.06h70.96v44.06z"/><path id="616tt" d="M445.81 3974.63v-15.97h65.61v15.97z"/><path id="616tw" d="M423 3994v-154h82v154zm66.07-41.96V3862h-44.23v90.04z"/><path id="616tC" d="M400 4006v-123h98v123zm76.92-41.86v-59.06H422v59.06z"/><path id="616tI" d="M457 4007v-129h91v129zm69-41.88v-65.36h-48.11v65.36z"/><path id="616tN" d="M654.19 4038.02v-35.35H719v35.35z"/><path id="616tQ" d="M584.07 4024.95v-128.33h128.16v128.33z"/><path id="616tU" d="M645.01 3984.75v-28.57h16.44v28.57z"/><path id="616tW" d="M523.13 4041.41v-51.33h22.73v51.33z"/><path id="616tl" d="M514.43 4040.92v-26.63h35.3v26.63z"/><path id="616taa" d="M530.72 4040.92c1.87-4.86-.22-20.8-4.19-25.25-3.97-4.46 14.53 2.86 14.53 2.86s-1.15 11.38-2.6 14.61c-4.3 9.51-8.67 10.2-7.74 7.78z"/><path id="616tac" d="M468 4054v-47.94h61.42V4054z"/><path id="616tah" d="M527.97 4045.28v-114.29h156.69v114.29z"/><path id="616tal" d="M527.97 4020.1v-30.02h80.28v30.02z"/><path id="616tm" d="M558.92 3823.98v-84.74h54.65v84.74z"/><path id="616tap" d="M578.24 3784.2c1.91 2.32 5.2 6.73 9.3 9.22 3.85 2.34 10.7 2.4 14.82 2.4 8.49 0-11.42 15.78-11.42 15.78l-12.7-2.55s-3.72-29.38 0-24.86z"/><path id="616tar" d="M588.16 3759.28c0-1.8 2.23-4.91 4.11-4.91"/><path id="616tas" d="M595.32 3763.9c.8-.21 1.07-1.35.6-2.54-.47-1.18-1.5-1.97-2.3-1.75-.8.2-1.08 1.34-.6 2.53.46 1.19 1.5 1.97 2.3 1.76z"/><path id="616tat" d="M607.18 3773.05c.42-.32.38.3.7.88.3.6.62 1.63.76 2.02-1.77 1.34-5.36.69-7.85-.26-.5-.19-1.02-.82-.7-1.25.3-.44.81-.29 1.34-.22 1.86.21 4.65-.34 5.75-1.17z"/><path id="616tau" d="M681.76 3798.8c-.64-1.01-1.23-15.44.49-17.44 1.72-2 6.13-4.45 6.77-3.88.63.58 2.19 3.69.97 4.36-1.23.68-3.57 3.03-3.39 3.88.17.84.53 3.34 1.45 4.36.92 1-4.8 11.07-6.29 8.71z"/><path id="616tav" d="M702.98 3770.24c1.4-1.2 8.07-4.45 8.78-1.95.48 1.66-1.72 3.82-6.58 6.46-2.4-2.22-3.13-3.72-2.2-4.51z"/><path id="616taw" d="M675.36 3782.3l27.58-13.42a3.95 3.95 0 0 1 5.01 1.36 3.55 3.55 0 0 1-.9 4.86l-25.36 18a6.25 6.25 0 0 1-9-1.93 6.3 6.3 0 0 1 2.67-8.86z"/><path id="616tax" d="M674.02 3828.82v-60.53h34.34v60.53z"/><path id="616taz" d="M530.38 3962.47v-22.27h84.64v22.27z"/><path id="616taB" d="M571.49 3826.88v-25.18h29.98v25.18z"/><path id="616tn" d="M524.1 3953.76v-140.44h102.53v140.44z"/><path id="616taG" d="M534.5 3871.2l18.38 91.03"/><path id="616taH" d="M550.94 3854.73l24.18 106.54"/><path id="616taI" d="M567.38 3830.51l29.5 136.56"/><path id="616taJ" d="M534.5 3889.6l98.18 27.11"/><path id="616taK" d="M532.08 3916.71l98.18 27.12"/><path id="616taL" d="M532.08 3863.44l98.18 27.12"/><path id="616taM" d="M532.08 3829.06l98.18 27.12"/><path id="616taN" d="M616.05 3949.5s-24.18-74.23-24.18-82.41c0-8.18 26.83-3.94 26.83-3.94l15 86.36z"/><path id="616taP" d="M661.45 3842.87v-37.78h34.34v37.78z"/><path id="616to" d="M586.49 3888.87v-75.06h106.88v75.06z"/><path id="616taU" d="M582.12 3847.7l63.71 22.22 34.85-49.68"/><path id="616taV" d="M597.37 3821.8l21.76 60.53"/><path id="616taW" d="M612.84 3821.8l21.76 60.53"/><path id="616taX" d="M638.48 3845.04l22.73 59.08"/><path id="616taY" d="M642.83 3841.65l32.89 33.9"/><path id="616taZ" d="M649.6 3828.58l40.14 34.87"/><path id="616tba" d="M656.37 3820.83l44.01 26.15"/><path id="616tbc" d="M471 3923v-232h166v232zm105.71-48.65V3716h-87.53v158.35z"/><path id="616tbg" d="M579.6 3782.06c0 6.24-11.87 84.58-22.52 90.7-10.66 6.11 32.9 5.83 32.9-5.85 0-11.69-10.37-91.09-10.37-84.85z"/><linearGradient id="616tq" x1="500.24" x2="441.93" y1="4002.22" y2="4002.22" gradientUnits="userSpaceOnUse"><stop offset="0" stop-color="#d9e5f6" stop-opacity=".71"/><stop offset="1" stop-color="#b2c6ea"/></linearGradient><linearGradient id="616ts" x1="513.36" x2="459.64" y1="4007.55" y2="3993.82" gradientUnits="userSpaceOnUse"><stop offset="0" stop-color="#acc5e9"/><stop offset=".63" stop-color="#d3e3fb"/><stop offset="1" stop-color="#eaf2ff"/></linearGradient><linearGradient id="616tu" x1="496.19" x2="472.42" y1="3959.14" y2="3981.09" gradientUnits="userSpaceOnUse"><stop offset="0" stop-color="#86a8d9"/><stop offset="1" stop-color="#bcd0f2"/></linearGradient><linearGradient id="616tv" x1="458.13" x2="474.72" y1="3876.95" y2="3961.07" gradientUnits="userSpaceOnUse"><stop offset="0" stop-color="#b1ffbe"/><stop offset=".44" stop-color="#5cdb8e"/><stop offset="1" stop-color="#149654"/></linearGradient><filter id="616tx" width="200%" height="200%" x="-50%" y="-50%"><feGaussianBlur in="SourceGraphic" result="FeGaussianBlur2811Out" stdDeviation="11 11"/></filter><mask id="616ty"><use fill="#fff" xlink:href="#616ta"/></mask><clipPath id="616tA"><use fill="#fff" xlink:href="#616tb"/></clipPath><linearGradient id="616tB" x1="464.6" x2="470.87" y1="3910.59" y2="3966.95" gradientUnits="userSpaceOnUse"><stop offset="0" stop-color="#b1ffbe"/><stop offset=".44" stop-color="#5cdb8e"/><stop offset="1" stop-color="#149654"/></linearGradient><filter id="616tD" width="200%" height="200%" x="-50%" y="-50%"><feGaussianBlur in="SourceGraphic" result="FeGaussianBlur2837Out" stdDeviation="11 11"/></filter><mask id="616tE"><use fill="#fff" xlink:href="#616tc"/></mask><clipPath id="616tG"><use fill="#fff" xlink:href="#616td"/></clipPath><linearGradient id="616tH" x1="495.3" x2="515.63" y1="3913.86" y2="3974.55" gradientUnits="userSpaceOnUse"><stop offset="0" stop-color="#b1ffbe"/><stop offset=".44" stop-color="#5cdb8e"/><stop offset="1" stop-color="#149654"/></linearGradient><filter id="616tJ" width="200%" height="200%" x="-50%" y="-50%"><feGaussianBlur in="SourceGraphic" result="FeGaussianBlur2863Out" stdDeviation="11 11"/></filter><mask id="616tK"><use fill="#fff" xlink:href="#616te"/></mask><clipPath id="616tM"><use fill="#fff" xlink:href="#616tf"/></clipPath><linearGradient id="616tO" x1="714.61" x2="701.86" y1="4011.64" y2="4031.41" gradientUnits="userSpaceOnUse"><stop offset="0" stop-color="#47689b"/><stop offset="1" stop-color="#223762"/></linearGradient><clipPath id="616tP"><use fill="#fff" xlink:href="#616tg"/></clipPath><linearGradient id="616tR" x1="673.85" x2="730.43" y1="3966.23" y2="3991.93" gradientUnits="userSpaceOnUse"><stop offset="0" stop-color="#93cde6"/><stop offset="1" stop-color="#7bbfdd"/></linearGradient><radialGradient id="616tS" cx="679.71" cy="3898.84" r="53.62" gradientUnits="userSpaceOnUse"><stop offset="0" stop-color="#e6f1ff" stop-opacity=".5"/><stop offset="1" stop-color="#a7c0eb" stop-opacity="0"/></radialGradient><linearGradient id="616tT" x1="666.15" x2="617.41" y1="3949.93" y2="3959.93" gradientUnits="userSpaceOnUse"><stop offset="0" stop-color="#b5c9ee" stop-opacity="0"/><stop offset="1" stop-color="#3e7aaa"/></linearGradient><linearGradient id="616tV" x1="655.66" x2="655.66" y1="3983.82" y2="3961.61" gradientUnits="userSpaceOnUse"><stop offset="0" stop-color="#7fc1de"/><stop offset="1" stop-color="#4387bb"/></linearGradient><linearGradient id="616tX" x1="534.39" x2="529.61" y1="4039.93" y2="3996.15" gradientUnits="userSpaceOnUse"><stop offset="0" stop-color="#001c44"/><stop offset="1" stop-color="#89a3d0"/></linearGradient><linearGradient id="616tY" x1="520.09" x2="531.92" y1="4010.6" y2="4032.84" gradientUnits="userSpaceOnUse"><stop offset="0" stop-color="#70b8f9"/><stop offset="1" stop-color="#3d82f0"/></linearGradient><linearGradient id="616tab" x1="535.06" x2="533.44" y1="4018.76" y2="4042.11" gradientUnits="userSpaceOnUse"><stop offset="0" stop-color="#70b8f9" stop-opacity="0"/><stop offset="1" stop-color="#0042a6"/></linearGradient><linearGradient id="616tad" x1="476.33" x2="487.59" y1="4019.23" y2="4040.83" gradientUnits="userSpaceOnUse"><stop offset="0" stop-color="#47689b"/><stop offset="1" stop-color="#223762"/></linearGradient><clipPath id="616tae"><use fill="#fff" xlink:href="#616th"/></clipPath><clipPath id="616taf"><use fill="#fff" xlink:href="#616ti"/></clipPath><clipPath id="616tag"><use fill="#fff" xlink:href="#616tj"/></clipPath><linearGradient id="616tai" x1="539.44" x2="579.04" y1="3958.35" y2="4016.04" gradientUnits="userSpaceOnUse"><stop offset="0" stop-color="#3f83b8"/><stop offset="1" stop-color="#4eb2d4" stop-opacity="0"/></linearGradient><linearGradient id="616taj" x1="662.58" x2="619.37" y1="3962.66" y2="3997.77" gradientUnits="userSpaceOnUse"><stop offset="0" stop-color="#fff" stop-opacity=".5"/><stop offset="1" stop-color="#fff" stop-opacity="0"/></linearGradient><linearGradient id="616tak" x1="605.12" x2="605.12" y1="4021.7" y2="4041.4" gradientUnits="userSpaceOnUse"><stop offset="0" stop-color="#6ec2ff" stop-opacity="0"/><stop offset="1" stop-color="#61a7ce"/></linearGradient><linearGradient id="616tam" x1="553.01" x2="580.57" y1="4002.69" y2="3995.14" gradientUnits="userSpaceOnUse"><stop offset="0" stop-color="#8ac9e3"/><stop offset="1" stop-color="#4387bb"/></linearGradient><linearGradient id="616tan" x1="609.09" x2="595.91" y1="3754.97" y2="3782.59" gradientUnits="userSpaceOnUse"><stop offset="0" stop-color="#70a6f9"/><stop offset="1" stop-color="#3d82f0"/></linearGradient><linearGradient id="616taq" x1="599.86" x2="577.93" y1="3795.56" y2="3811.6" gradientUnits="userSpaceOnUse"><stop offset="0" stop-color="#023786"/><stop offset="1" stop-color="#3d82f0"/></linearGradient><linearGradient id="616tay" x1="702.52" x2="696.65" y1="3808.56" y2="3793.12" gradientUnits="userSpaceOnUse"><stop offset="0" stop-color="#1861bd"/><stop offset="1" stop-color="#3d82f0"/></linearGradient><linearGradient id="616taA" x1="532.26" x2="614.54" y1="3951.31" y2="3951.31" gradientUnits="userSpaceOnUse"><stop offset="0" stop-color="#88a1c8"/><stop offset=".34" stop-color="#b7cae6"/><stop offset="1" stop-color="#dfebff"/></linearGradient><linearGradient id="616taC" x1="597.62" x2="587.49" y1="3806.62" y2="3818.4" gradientUnits="userSpaceOnUse"><stop offset="0" stop-color="#f1f7ff"/><stop offset="1" stop-color="#a7bcde"/></linearGradient><linearGradient id="616taD" x1="582.37" x2="519.29" y1="3882.2" y2="3937.8" gradientUnits="userSpaceOnUse"><stop offset="0" stop-color="#fff"/><stop offset="1" stop-color="#eaefff"/></linearGradient><linearGradient id="616taE" x1="600.84" x2="544.21" y1="3882.2" y2="3873.08" gradientUnits="userSpaceOnUse"><stop offset="0" stop-color="#fff" stop-opacity="0"/><stop offset="1" stop-color="#d8e1f0"/></linearGradient><linearGradient id="616taO" x1="639.76" x2="596.41" y1="3900.48" y2="3937.45" gradientUnits="userSpaceOnUse"><stop offset="0" stop-color="#9baecf" stop-opacity=".77"/><stop offset=".39" stop-color="#cddbf4" stop-opacity=".66"/><stop offset="1" stop-color="#feffff" stop-opacity=".58"/></linearGradient><linearGradient id="616taQ" x1="672.58" x2="687.24" y1="3814.33" y2="3839.99" gradientUnits="userSpaceOnUse"><stop offset="0" stop-color="#f1f7ff"/><stop offset="1" stop-color="#a7bcde"/></linearGradient><linearGradient id="616taR" x1="603.74" x2="614.58" y1="3833.73" y2="3886.62" gradientUnits="userSpaceOnUse"><stop offset="0" stop-color="#fff"/><stop offset="1" stop-color="#e9f0fc"/></linearGradient><linearGradient id="616taS" x1="637.28" x2="657.55" y1="3862.9" y2="3890.45" gradientUnits="userSpaceOnUse"><stop offset="0" stop-color="#fff" stop-opacity="0"/><stop offset="1" stop-color="#abbfd6"/></linearGradient><radialGradient id="616tbb" cx="538.83" cy="3752.69" r="43.38" gradientUnits="userSpaceOnUse"><stop offset="0" stop-color="#3162ae"/><stop offset="1" stop-color="#223762"/></radialGradient><filter id="616tbd" width="200%" height="200%" x="-50%" y="-50%"><feGaussianBlur in="SourceGraphic" result="FeGaussianBlur3210Out" stdDeviation="13.5 13.5"/></filter><mask id="616tbe"><use fill="#fff" xlink:href="#616tk"/></mask><linearGradient id="616tbh" x1="559.7" x2="578.17" y1="3815.52" y2="3848.82" gradientUnits="userSpaceOnUse"><stop offset="0" stop-color="#001630" stop-opacity=".06"/><stop offset="1" stop-color="#081e41"/></linearGradient><clipPath id="616tz"><use xlink:href="#616ta"/></clipPath><clipPath id="616tF"><use xlink:href="#616tc"/></clipPath><clipPath id="616tL"><use xlink:href="#616te"/></clipPath><clipPath id="616tZ"><use xlink:href="#616tl"/></clipPath><clipPath id="616tao"><use xlink:href="#616tm"/></clipPath><clipPath id="616taF"><use xlink:href="#616tn"/></clipPath><clipPath id="616taT"><use xlink:href="#616to"/></clipPath><clipPath id="616tbf"><use xlink:href="#616tk"/></clipPath></defs><g><g clip-path="url(#clip-DB73F18B-C434-4659-99A6-424C5505B1D4)" transform="translate(-422 -3743)"><g><g><g opacity=".15"><use fill="url(#616tq)" xlink:href="#616tp"/></g><g><g><use fill="url(#616ts)" xlink:href="#616tr"/></g></g><g><g><use fill="url(#616tu)" xlink:href="#616tt"/></g></g></g><g><g><g><g><use fill="url(#616tv)" xlink:href="#616ta"/><use fill="#38c79c" stroke="#38c79c" stroke-width="0" filter="url(#616tx)" mask="url(&quot;#616ty&quot;)" xlink:href="#616tw"/></g><g clip-path="url(#616tz)" opacity=".5"><use xlink:href="#616tb"/><use fill="#fff" fill-opacity="0" stroke="#489c71" stroke-miterlimit="50" stroke-width="6" clip-path="url(&quot;#616tA&quot;)" xlink:href="#616tb"/></g></g></g><g><g><g><use fill="url(#616tB)" xlink:href="#616tc"/><use fill="#38c79c" stroke="#38c79c" stroke-width="0" filter="url(#616tD)" mask="url(&quot;#616tE&quot;)" xlink:href="#616tC"/></g><g clip-path="url(#616tF)" opacity=".5"><use xlink:href="#616td"/><use fill="#fff" fill-opacity="0" stroke="#489c71" stroke-miterlimit="50" stroke-width="6" clip-path="url(&quot;#616tG&quot;)" xlink:href="#616td"/></g></g></g><g><g><g><use fill="url(#616tH)" xlink:href="#616te"/><use fill="#38c79c" stroke="#38c79c" stroke-width="0" filter="url(#616tJ)" mask="url(&quot;#616tK&quot;)" xlink:href="#616tI"/></g><g clip-path="url(#616tL)" opacity=".5"><use xlink:href="#616tf"/><use fill="#fff" fill-opacity="0" stroke="#489c71" stroke-miterlimit="50" stroke-width="6" clip-path="url(&quot;#616tM&quot;)" xlink:href="#616tf"/></g></g></g></g></g><g><g><g><g><use fill="url(#616tO)" xlink:href="#616tN"/></g><g><use xlink:href="#616tg"/><use fill="#fff" fill-opacity="0" stroke="#d2ddf1" stroke-miterlimit="50" stroke-width="8" clip-path="url(&quot;#616tP&quot;)" xlink:href="#616tg"/></g></g><g><g><use fill="url(#616tR)" xlink:href="#616tQ"/><use fill="url(#616tS)" xlink:href="#616tQ"/><use fill="url(#616tT)" xlink:href="#616tQ"/></g></g><g><g><use fill="url(#616tV)" xlink:href="#616tU"/></g></g><g><g><use fill="url(#616tX)" xlink:href="#616tW"/></g></g><g><g><use fill="url(#616tY)" xlink:href="#616tl"/></g><g clip-path="url(#616tZ)" opacity=".6"><use fill="url(#616tab)" xlink:href="#616taa"/></g></g><g><g><g><use fill="url(#616tad)" xlink:href="#616tac"/></g></g><g><use xlink:href="#616th"/><use fill="#fff" fill-opacity="0" stroke="#d2ddf1" stroke-miterlimit="50" stroke-width="8" clip-path="url(&quot;#616tae&quot;)" xlink:href="#616th"/></g><g><use xlink:href="#616ti"/><use fill="#fff" fill-opacity="0" stroke="#d2ddf1" stroke-miterlimit="50" stroke-width="8" clip-path="url(&quot;#616taf&quot;)" xlink:href="#616ti"/></g><g><use fill="#fff" fill-opacity="0" stroke="#d2ddf1" stroke-linecap="round" stroke-linejoin="round" stroke-miterlimit="50" stroke-width="8" clip-path="url(&quot;#616tag&quot;)" xlink:href="#616tj"/></g></g><g><g><use fill="#93cde6" xlink:href="#616tah"/><use fill="url(#616tai)" xlink:href="#616tah"/><use fill="url(#616taj)" xlink:href="#616tah"/><use fill="url(#616tak)" xlink:href="#616tah"/></g><g><use fill="url(#616tam)" xlink:href="#616tal"/></g></g></g><g><g><use fill="url(#616tan)" xlink:href="#616tm"/></g><g clip-path="url(#616tao)"><use fill="url(#616taq)" xlink:href="#616tap"/></g><g clip-path="url(#616tao)"><use xlink:href="#616tar"/><use fill="#fff" fill-opacity="0" stroke="#223762" stroke-miterlimit="50" stroke-width="3" xlink:href="#616tar"/></g><g clip-path="url(#616tao)"><use fill="#223762" xlink:href="#616tas"/></g><g clip-path="url(#616tao)"><use fill="#223762" xlink:href="#616tat"/></g></g><g><g><use fill="#346cc7" xlink:href="#616tau"/></g><g><g><use fill="#9db6e2" xlink:href="#616tav"/></g><g><use fill="#223762" xlink:href="#616taw"/></g></g><g><use fill="url(#616tay)" xlink:href="#616tax"/></g></g><g><g><use fill="url(#616taA)" xlink:href="#616taz"/></g><g><use fill="url(#616taC)" xlink:href="#616taB"/></g><g><g><use fill="url(#616taD)" xlink:href="#616tn"/><use fill="url(#616taE)" xlink:href="#616tn"/></g><g clip-path="url(#616taF)" opacity=".43"><use fill="#fff" fill-opacity="0" stroke="#fff" stroke-linecap="square" stroke-miterlimit="50" stroke-width="3" xlink:href="#616taG"/></g><g clip-path="url(#616taF)" opacity=".43"><use fill="#fff" fill-opacity="0" stroke="#fff" stroke-linecap="square" stroke-miterlimit="50" stroke-width="3" xlink:href="#616taH"/></g><g clip-path="url(#616taF)" opacity=".43"><use fill="#fff" fill-opacity="0" stroke="#fff" stroke-linecap="square" stroke-miterlimit="50" stroke-width="3" xlink:href="#616taI"/></g><g clip-path="url(#616taF)" opacity=".43"><use fill="#fff" fill-opacity="0" stroke="#fff" stroke-linecap="square" stroke-miterlimit="50" stroke-width="3" xlink:href="#616taJ"/></g><g clip-path="url(#616taF)" opacity=".43"><use fill="#fff" fill-opacity="0" stroke="#fff" stroke-linecap="square" stroke-miterlimit="50" stroke-width="3" xlink:href="#616taK"/></g><g clip-path="url(#616taF)" opacity=".43"><use fill="#fff" fill-opacity="0" stroke="#fff" stroke-linecap="square" stroke-miterlimit="50" stroke-width="3" xlink:href="#616taL"/></g><g clip-path="url(#616taF)" opacity=".43"><use fill="#fff" fill-opacity="0" stroke="#fff" stroke-linecap="square" stroke-miterlimit="50" stroke-width="3" xlink:href="#616taM"/></g><g clip-path="url(#616taF)"><use fill="url(#616taO)" xlink:href="#616taN"/></g></g><g><use fill="url(#616taQ)" xlink:href="#616taP"/></g><g><g><use fill="url(#616taR)" xlink:href="#616to"/><use fill="url(#616taS)" xlink:href="#616to"/></g><g clip-path="url(#616taT)" opacity=".43"><use fill="#fff" fill-opacity="0" stroke="#fff" stroke-linecap="square" stroke-miterlimit="50" stroke-width="3" xlink:href="#616taU"/></g><g clip-path="url(#616taT)" opacity=".43"><use fill="#fff" fill-opacity="0" stroke="#fff" stroke-linecap="square" stroke-miterlimit="50" stroke-width="3" xlink:href="#616taV"/></g><g clip-path="url(#616taT)" opacity=".43"><use fill="#fff" fill-opacity="0" stroke="#fff" stroke-linecap="square" stroke-miterlimit="50" stroke-width="3" xlink:href="#616taW"/></g><g clip-path="url(#616taT)" opacity=".43"><use fill="#fff" fill-opacity="0" stroke="#fff" stroke-linecap="square" stroke-miterlimit="50" stroke-width="3" xlink:href="#616taX"/></g><g clip-path="url(#616taT)" opacity=".43"><use fill="#fff" fill-opacity="0" stroke="#fff" stroke-linecap="square" stroke-miterlimit="50" stroke-width="3" xlink:href="#616taY"/></g><g clip-path="url(#616taT)" opacity=".43"><use fill="#fff" fill-opacity="0" stroke="#fff" stroke-linecap="square" stroke-miterlimit="50" stroke-width="3" xlink:href="#616taZ"/></g><g clip-path="url(#616taT)" opacity=".43"><use fill="#fff" fill-opacity="0" stroke="#fff" stroke-linecap="square" stroke-miterlimit="50" stroke-width="3" xlink:href="#616tba"/></g></g></g><g><g><use fill="url(#616tbb)" xlink:href="#616tk"/><use fill="#0a1b39" fill-opacity=".41" stroke="#0a1b39" stroke-opacity=".41" stroke-width="0" filter="url(#616tbd)" mask="url(&quot;#616tbe&quot;)" xlink:href="#616tbc"/></g><g clip-path="url(#616tbf)"><use fill="url(#616tbh)" xlink:href="#616tbg"/></g></g></g></g></g></svg>