<svg xmlns="http://www.w3.org/2000/svg" xmlns:xlink="http://www.w3.org/1999/xlink" width="46" height="1" viewBox="0 0 46 1"><defs><path id="ca2ia" d="M1143.45 3579.25l15.35 3.54-3.55-15.35-65.48-65.48a4.23 4.23 0 0 0-5.85 0l-5.96 5.96a4.14 4.14 0 0 0 0 5.84l65.49 65.49zm17.18 6.75l-.31-.03-17.87-4.13a1.37 1.37 0 0 1-.67-.37l-65.76-65.76a6.9 6.9 0 0 1 0-9.73l5.96-5.97a6.86 6.86 0 0 1 9.73 0l65.77 65.77c.18.18.3.41.36.66l4.13 17.88a1.38 1.38 0 0 1-1.34 1.68z"/></defs><g><g transform="translate(-1074 -3498)"><use fill="#5153d4" xlink:href="#ca2ia"/></g></g></svg>