<svg xmlns="http://www.w3.org/2000/svg" xmlns:xlink="http://www.w3.org/1999/xlink" width="86" height="84" viewBox="0 0 86 84"><defs><path id="bcm6a" d="M1089.13 3586c-.36 0-.7-.14-.98-.4l-13.75-13.76a1.37 1.37 0 0 1 0-1.94l28.88-28.88a1.37 1.37 0 1 1 1.94 1.95l-27.9 27.9 11.8 11.8 27.9-27.9a1.37 1.37 0 1 1 1.95 1.95l-28.87 28.87c-.27.27-.62.4-.97.4z"/><path id="bcm6b" d="M1131.76 3543.38a1.37 1.37 0 0 1-.98-2.35l27.9-27.9-11.8-11.81-27.9 27.9a1.37 1.37 0 1 1-1.95-1.94l28.88-28.88c.53-.53 1.4-.53 1.94 0l13.75 13.75c.54.54.54 1.41 0 1.95l-28.87 28.87c-.27.27-.62.4-.97.4z"/><path id="bcm6c" d="M1082.24 3521.37a1.37 1.37 0 0 1-.97-2.35l13.75-13.75a1.37 1.37 0 1 1 1.95 1.95l-13.75 13.75c-.27.27-.62.4-.98.4z"/><path id="bcm6d" d="M1143.45 3579.25l15.35 3.54-3.55-15.35-65.48-65.48a4.23 4.23 0 0 0-5.85 0l-5.96 5.96a4.14 4.14 0 0 0 0 5.84l65.49 65.49zm17.18 6.75l-.31-.03-17.87-4.13a1.37 1.37 0 0 1-.67-.37l-65.76-65.76a6.9 6.9 0 0 1 0-9.73l5.96-5.97a6.86 6.86 0 0 1 9.73 0l65.77 65.77c.18.18.3.41.36.66l4.13 17.88a1.38 1.38 0 0 1-1.34 1.68z"/><path id="bcm6e" d="M1085 3570.87c-.35 0-.7-.13-.97-.4l-4.13-4.12a1.37 1.37 0 1 1 1.95-1.95l4.12 4.13a1.37 1.37 0 0 1-.97 2.34z"/><path id="bcm6f" d="M1090.5 3565.37c-.35 0-.7-.13-.97-.4l-4.13-4.12a1.37 1.37 0 1 1 1.95-1.95l4.12 4.13a1.37 1.37 0 0 1-.97 2.34z"/><path id="bcm6g" d="M1096 3559.87c-.35 0-.7-.13-.97-.4l-4.13-4.12a1.37 1.37 0 1 1 1.95-1.95l4.12 4.13a1.37 1.37 0 0 1-.97 2.34z"/><path id="bcm6h" d="M1101.5 3554.37c-.35 0-.7-.13-.97-.4l-4.13-4.12a1.37 1.37 0 1 1 1.95-1.95l4.12 4.13a1.37 1.37 0 0 1-.97 2.34z"/><path id="bcm6i" d="M1129 3526.87c-.35 0-.7-.13-.97-.4l-4.13-4.12a1.37 1.37 0 1 1 1.95-1.95l4.12 4.13a1.37 1.37 0 0 1-.97 2.34z"/><path id="bcm6j" d="M1134.5 3521.37c-.35 0-.7-.13-.97-.4l-4.13-4.12a1.37 1.37 0 1 1 1.95-1.95l4.12 4.13a1.37 1.37 0 0 1-.97 2.34z"/><path id="bcm6k" d="M1140 3515.87c-.35 0-.7-.13-.97-.4l-4.13-4.12a1.37 1.37 0 1 1 1.95-1.95l4.12 4.13a1.37 1.37 0 0 1-.97 2.34z"/><path id="bcm6l" d="M1145.5 3510.37c-.35 0-.7-.13-.97-.4l-4.13-4.12a1.37 1.37 0 1 1 1.95-1.95l4.12 4.13a1.37 1.37 0 0 1-.97 2.34z"/><path id="bcm6m" d="M1142.74 3581.87a1.37 1.37 0 0 1-.97-2.35l13.75-13.75a1.37 1.37 0 1 1 1.95 1.95l-13.75 13.75c-.27.27-.62.4-.98.4z"/><path id="bcm6n" d="M1151.68 3583.93a1.37 1.37 0 0 1-.97-2.34l6.88-6.88a1.37 1.37 0 1 1 1.94 1.95l-6.87 6.87c-.27.27-.62.4-.98.4z"/><path id="bcm6o" d="M1078.13 3517.25a1.37 1.37 0 0 1-.98-2.35l13.75-13.75a1.37 1.37 0 1 1 1.95 1.95l-13.75 13.75c-.27.27-.62.4-.97.4z"/><path id="bcm6p" d="M1152.38 3572.25c-.36 0-.7-.13-.98-.4l-60.5-60.5a1.37 1.37 0 1 1 1.95-1.95l60.5 60.5a1.37 1.37 0 0 1-.97 2.35z"/><path id="bcm6q" d="M1146.88 3577.75c-.36 0-.7-.13-.98-.4l-60.5-60.5a1.37 1.37 0 1 1 1.95-1.95l60.5 60.5a1.37 1.37 0 0 1-.97 2.35z"/><path id="bcm6r" d="M1118 3521.38a1.38 1.38 0 0 1-.96-2.35c.48-.5 1.43-.51 1.94 0a1.4 1.4 0 0 1 0 1.95c-.26.25-.62.4-.98.4z"/><path id="bcm6s" d="M1118 3515.88a1.38 1.38 0 0 1-.96-2.35c.48-.5 1.42-.51 1.94 0 .25.26.4.6.4.97 0 .36-.15.72-.4.98-.26.25-.62.4-.98.4z"/><path id="bcm6t" d="M1118 3510.37c-.35 0-.71-.15-.97-.4-.25-.26-.4-.61-.4-.97s.15-.72.4-.98c.52-.5 1.43-.5 1.95 0 .25.26.4.62.4.98s-.15.71-.4.97c-.26.25-.62.4-.98.4z"/><path id="bcm6u" d="M1118 3504.87c-.35 0-.71-.15-.97-.4-.25-.26-.4-.61-.4-.97s.15-.72.4-.98c.52-.5 1.44-.5 1.95 0 .25.26.4.62.4.98a1.4 1.4 0 0 1-1.38 1.37z"/><path id="bcm6v" d="M1118 3581.87c-.35 0-.71-.15-.97-.4-.25-.26-.4-.61-.4-.97 0-.37.15-.72.4-.98.52-.5 1.43-.5 1.95 0 .25.26.4.6.4.98 0 .36-.15.71-.4.97-.26.25-.62.4-.98.4z"/><path id="bcm6w" d="M1118 3576.37c-.35 0-.71-.15-.97-.4-.25-.26-.4-.61-.4-.97 0-.37.15-.72.4-.98.52-.5 1.44-.5 1.95 0 .25.26.4.62.4.98s-.15.71-.4.97c-.26.25-.62.4-.98.4z"/><path id="bcm6x" d="M1118 3570.87c-.35 0-.71-.15-.97-.4-.25-.26-.4-.61-.4-.97 0-.37.15-.72.4-.98.5-.5 1.43-.5 1.95 0 .25.26.4.62.4.98s-.15.71-.4.97c-.26.25-.62.4-.98.4z"/><path id="bcm6y" d="M1118 3565.37c-.35 0-.71-.15-.97-.4-.25-.26-.4-.61-.4-.97s.15-.72.4-.98c.5-.5 1.43-.5 1.95 0 .25.26.4.62.4.98s-.15.71-.4.97c-.26.25-.62.4-.98.4z"/><path id="bcm6z" d="M1140 3543.37a1.38 1.38 0 0 1-1.37-1.37c0-.37.15-.72.4-.98.5-.5 1.44-.5 1.95 0 .25.26.4.6.4.98 0 .37-.15.71-.4.97-.26.25-.6.4-.98.4z"/><path id="bcm6A" d="M1145.5 3543.37c-.35 0-.71-.15-.97-.4-.25-.26-.4-.61-.4-.97s.15-.72.4-.98c.52-.5 1.44-.5 1.95 0 .25.26.4.62.4.98s-.15.71-.41.97c-.25.25-.6.4-.97.4z"/><path id="bcm6B" d="M1151 3543.37c-.35 0-.71-.15-.97-.4-.25-.26-.4-.61-.4-.97s.15-.72.4-.98c.52-.5 1.43-.5 1.95 0 .25.26.4.62.4.98s-.15.71-.4.97c-.26.25-.62.4-.98.4z"/><path id="bcm6C" d="M1156.5 3543.37a1.4 1.4 0 0 1-.97-.4c-.25-.26-.4-.6-.4-.97s.15-.72.4-.98c.5-.5 1.43-.5 1.95 0 .25.26.4.62.4.98s-.15.71-.4.97c-.26.25-.62.4-.98.4z"/><path id="bcm6D" d="M1079.5 3543.37c-.35 0-.71-.15-.97-.4-.25-.26-.4-.61-.4-.97s.15-.72.4-.98c.52-.5 1.44-.5 1.95 0a1.38 1.38 0 0 1-.98 2.35z"/><path id="bcm6E" d="M1085 3543.37c-.35 0-.71-.15-.97-.4-.25-.26-.4-.61-.4-.97s.15-.72.4-.98c.52-.5 1.43-.5 1.95 0 .25.26.4.62.4.98s-.15.71-.4.97c-.26.25-.62.4-.98.4z"/><path id="bcm6F" d="M1090.5 3543.37a1.4 1.4 0 0 1-.97-.4c-.25-.26-.4-.6-.4-.97s.15-.72.4-.98c.5-.5 1.43-.5 1.95 0 .25.26.4.62.4.98s-.15.71-.4.97c-.26.25-.62.4-.98.4z"/><path id="bcm6G" d="M1096 3543.37a1.38 1.38 0 0 1-1.37-1.37c0-.37.15-.72.4-.98.5-.5 1.44-.5 1.95 0 .25.26.4.6.4.98 0 .37-.15.71-.4.97-.26.25-.62.4-.98.4z"/></defs><g><g transform="translate(-1074 -3498)"><g><g><g><g><use fill="#5153d4" xlink:href="#bcm6a"/></g></g><g><g><use fill="#5153d4" xlink:href="#bcm6b"/></g></g><g><g><use fill="#5153d4" xlink:href="#bcm6c"/></g></g><g><g><use fill="#5153d4" xlink:href="#bcm6d"/></g></g><g><g><use fill="#5153d4" xlink:href="#bcm6e"/></g></g><g><g><use fill="#5153d4" xlink:href="#bcm6f"/></g></g><g><g><use fill="#5153d4" xlink:href="#bcm6g"/></g></g><g><g><use fill="#5153d4" xlink:href="#bcm6h"/></g></g><g><g><use fill="#5153d4" xlink:href="#bcm6i"/></g></g><g><g><use fill="#5153d4" xlink:href="#bcm6j"/></g></g><g><g><use fill="#5153d4" xlink:href="#bcm6k"/></g></g><g><g><use fill="#5153d4" xlink:href="#bcm6l"/></g></g><g><g><use fill="#5153d4" xlink:href="#bcm6m"/></g></g><g><g><use fill="#5153d4" xlink:href="#bcm6n"/></g></g><g><g><use fill="#5153d4" xlink:href="#bcm6o"/></g></g><g><g><use fill="#5153d4" xlink:href="#bcm6p"/></g></g><g><g><use fill="#5153d4" xlink:href="#bcm6q"/></g></g><g><g><g><use fill="#5153d4" xlink:href="#bcm6r"/></g></g><g><g><use fill="#5153d4" xlink:href="#bcm6s"/></g></g><g><g><use fill="#5153d4" xlink:href="#bcm6t"/></g></g><g><g><use fill="#5153d4" xlink:href="#bcm6u"/></g></g></g><g><g><g><use fill="#5153d4" xlink:href="#bcm6v"/></g></g><g><g><use fill="#5153d4" xlink:href="#bcm6w"/></g></g><g><g><use fill="#5153d4" xlink:href="#bcm6x"/></g></g><g><g><use fill="#5153d4" xlink:href="#bcm6y"/></g></g></g><g><g><g><use fill="#5153d4" xlink:href="#bcm6z"/></g></g><g><g><use fill="#5153d4" xlink:href="#bcm6A"/></g></g><g><g><use fill="#5153d4" xlink:href="#bcm6B"/></g></g><g><g><use fill="#5153d4" xlink:href="#bcm6C"/></g></g></g><g><g><g><use fill="#5153d4" xlink:href="#bcm6D"/></g></g><g><g><use fill="#5153d4" xlink:href="#bcm6E"/></g></g><g><g><use fill="#5153d4" xlink:href="#bcm6F"/></g></g><g><g><use fill="#5153d4" xlink:href="#bcm6G"/></g></g></g></g></g></g></g></svg>