<svg xmlns="http://www.w3.org/2000/svg" xmlns:xlink="http://www.w3.org/1999/xlink" width="528" height="400" viewBox="0 0 528 400"><defs><path id="eqzca" d="M1122 2977.04v-114.16h138.16v114.16z"/><path id="eqzcb" d="M971.05 2898.12v-161.65h200.89v161.65z"/><path id="eqzcc" d="M1049.37 2998.02v-58.07h158.16v58.07z"/><path id="eqzcd" d="M1031.96 2998.02v-118.57h112.21v118.57z"/><path id="eqzce" d="M824.96 2995.6v-90.01h44v90.01z"/><path id="eqzcf" d="M855.42 2994.63c1.32-29.12-2.3-47.5-13.69-64.85"/><path id="eqzcg" d="M802.23 3007.7v-59.05h54.65v59.05z"/><path id="eqzch" d="M855.59 3007.1c-8.78-22.66-17.72-35.46-32.24-44.86"/><path id="eqzci" d="M857.84 3008.67v-65.34h47.89v65.34z"/><path id="eqzcj" d="M858.57 3008.08c5.8-23.69 13.04-37.58 26.28-48.82"/><path id="eqzcn" d="M939.54 2684.09c90.85-26.09 179.25-8.5 221.45 38.79 66.23 4.3 119.82 36.07 134.27 86.3 20.61 71.62-46.1 153.64-149.02 183.19-73.36 21.06-145.3 9.78-188.04-24.38-89.13 7.45-165.63-27.1-183.42-88.9-21.68-75.35 52.09-162.65 164.76-195z"/><path id="eqzco" d="M1008.47 2979.54c-4.57 4.05-21.93-4.05-28.8-16.63-6.9-12.57 5.88-17.05-11.49-37.16-17.37-20.1-28.51-27.8-17.97-60.96 10.54-33.15-4.02-51.57 15.22-60.22 19.23-8.65 30.31 20.06 28.1 45.3-2.2 25.25 2.31 30.48 21.13 27.87 18.82-2.62 2.95 34.45 2.95 42.54 0 8.09 11.41 23.11 9.05 34.42-2.37 11.3-13.63 20.79-18.2 24.84z"/><path id="eqzcq" d="M997.48 2944.3c0-6.22 1.56-25.57 10.07-37.35"/><path id="eqzcr" d="M984.18 2908.06c0-6.2-17.38-10.57-25.89-22.35"/><path id="eqzcs" d="M1018.72 3008.62c0-2.64-4.54-14.55-8.87-28.35-13.58-43.2-35.46-96.42-35.46-133.29"/><path id="eqzct" d="M1101.3 2976.97c0-19.53 16.36-79.98 38.45-113.05"/><path id="eqzcu" d="M1115.7 2860.56c-4.9-8.5-6.69-16.66-3.97-18.23 2.71-1.57 8.9 4.06 13.8 12.56s6.69 16.66 3.97 18.23c-2.71 1.57-8.9-4.06-13.8-12.56z"/><path id="eqzcw" d="M1152.79 2870.2c9.8-.35 17.85 1.91 17.96 5.04.1 3.14-7.76 5.95-17.57 6.3-9.8.34-17.85-1.92-17.96-5.05-.1-3.14 7.76-5.95 17.57-6.3z"/><path id="eqzcy" d="M1142.51 2895.97c9.82.17 17.73 2.85 17.68 5.99-.06 3.13-8.06 5.53-17.87 5.36-9.82-.17-17.73-2.85-17.68-5.99.06-3.13 8.06-5.53 17.87-5.36z"/><path id="eqzcA" d="M1133.9 2920.97c9.8.17 17.72 2.85 17.67 5.99-.06 3.13-8.06 5.53-17.87 5.36-9.82-.17-17.73-2.85-17.68-5.99.06-3.13 8.06-5.53 17.87-5.36z"/><path id="eqzcC" d="M1146.57 2842.2c5.34-8.23 11.8-13.52 14.44-11.81 2.62 1.7.42 9.76-4.93 18-5.34 8.23-11.8 13.52-14.44 11.81-2.62-1.7-.42-9.76 4.93-18z"/><path id="eqzcE" d="M1102.25 2888.72c-6.44-7.41-9.74-15.08-7.38-17.14 2.37-2.06 9.5 2.28 15.95 9.7 6.44 7.4 9.74 15.07 7.38 17.13-2.37 2.06-9.5-2.28-15.95-9.7z"/><path id="eqzcG" d="M1092.1 2916.5c-7.18-6.7-11.27-13.99-9.13-16.28 2.13-2.29 9.69 1.28 16.87 7.97 7.17 6.7 11.26 13.99 9.12 16.28-2.13 2.29-9.69-1.28-16.87-7.97z"/><path id="eqzcI" d="M950.24 2749.92l48.96-37.52"/><path id="eqzcJ" d="M950.72 2768.77l38.62-29.6"/><path id="eqzcK" d="M1119.56 2792.92l48.96-37.52"/><path id="eqzcL" d="M1120.04 2811.76l38.62-29.6"/><path id="eqzcM" d="M1148.18 2985.75v-157.22h165.31v157.22z"/><path id="eqzck" d="M1164.18 2917.06v-89.98h67.87v89.98z"/><path id="eqzcQ" d="M1222.7 2870.29s-13.85-24.54-20.32-30.7c-6.48-6.15 30.88-12.36 30.88-12.36l-10.56 47.69z"/><path id="eqzcS" d="M1169.51 2859.49v-65.79h60.6v65.79z"/><path id="eqzcU" d="M1177.26 2859v-89h71.26v89z"/><path id="eqzcX" d="M1171.94 2858.52v-36.28h48.47v36.28z"/><path id="eqzcaa" d="M1083 3005v-170h215v170zm165.16-26.96v-114.16H1110v114.16z"/><path id="eqzcae" d="M1187.11 2865.55c-11.14 11.37 10.83 17.43 19.8 14.4 8.98-3.03 19.04-14.4 19.04-14.4s-25.36-18.84-32.1-9.42c-6.74 9.42 4.4-1.96-6.74 9.42z"/><path id="eqzcag" d="M1171.24 2968.46c7.93 0 59.5-8.52 59.5-15.43 0-6.92-3.98-55.64-3.98-55.64"/><path id="eqzcai" d="M1099.01 2938.48c3.6 0 20.2 20.99 35.37 13.92 18.33-8.53 29-40.14 29-43.92 0-2.9 4.81-13.16 2.98-24.35-1.09-6.63-9.95-21.03-9.95-21.03"/><path id="eqzcak" d="M1036.22 2759.22v-65.34h38.17v65.34z"/><path id="eqzcam" d="M1030.43 2734.05v-66.3h54.1v66.3z"/><path id="eqzcao" d="M1022.21 2710.34v-65.83h83.57v65.83z"/><path id="eqzcaq" d="M1001.13 2929.2c0-5.38-6.23-40.65 6.6-51.25 12.84-10.6 28.71 4.86 87.17 7.2.96 23.7.96 40.37 0 50.03-.96 9.66-36.28 23.36-93.77-5.98z"/><path id="eqzcar" d="M991.22 2883.53c1.38 6.12 5.94 12.65 7.48 14.06 1.53 1.41 7.12 3.16 8.18 2.82 1.06-.34 3.84-2.67 3.96-5.4.13-2.72-2.54-4.25-2.56-8.28-.01-4.03-6.7-9.87-6.7-13.43 0-3.57-11.74 4.11-10.36 10.23z"/><path id="eqzcas" d="M1163.06 2875.14c4.15 5.5 6.85 6.47 8.4 8.11 1.55 1.65 5.11 7.45 6.43 6.48 1.32-.96 2.69-2.87.63-6.48-2.05-3.6-5.16-7.4-4.08-9.31 1.08-1.91 6.35-7.55 10.75-8.86 4.4-1.31 5.87-.47 6.3-1.17.45-.7-5.26-1.73-7.6-2a42.87 42.87 0 0 0-10.49 0c-3.2.39-5.43-.95-6.69-3.99-5.2 7.8-6.41 13.54-3.65 17.22z"/><path id="eqzcau" d="M940 2925v-215h263v215zm239.94-23.88v-161.65H979.05v161.65z"/><path id="eqzcay" d="M1001 2806.83l18.2-24.24s6.75 78.6-23.35 105.83c-5.3-31.5-2.35-47.96 0-61.72 1.54-9.04 5.15-19.87 5.15-19.87z"/><path id="eqzcaA" d="M1007.07 2893.89c6.8-19.95 37.34-85.64 50.4-95 13.08-9.38 14.06-21.47 13.57-37.51-.5-16.05-31.02-48.02-46.98-35.93-15.96 12.1-58.69 34.4-63.36 71.82-4.67 37.41 15.23 94.8 24.22 89.13 8.98-5.68 15.36 27.44 22.15 7.49z"/><path id="eqzcaC" d="M1035.73 2756.31v-36.3h34.79v36.3z"/><path id="eqzcaE" d="M787.71 2966.07v-153.89h134.46v153.89z"/><path id="eqzcaG" d="M908.82 2819.29c-2.1 6.66 4.72 25.45 15.57 34.64 10.84 9.19-24.04 7.62-24.06-2.62-.02-10.24 10.59-38.68 8.49-32.02z"/><path id="eqzcaH" d="M912.98 2929.78v-90.49h81.73v90.49z"/><path id="eqzcaJ" d="M872.83 2945.75v-109.86h75.45v109.86z"/><path id="eqzcaL" d="M935.04 2977.49l118.4-19.15 90.08 39.5-130.41 34.61"/><path id="eqzcl" d="M881.54 2847.99v-39.2h26.6v39.2z"/><path id="eqzcaQ" d="M880.48 2847.8s27.13-22.75 33.4-22.75c6.25 0-33.4-7.63-33.4-7.63z"/><path id="eqzcaS" d="M874.29 2832.5v-63.88h52.23v63.88z"/><path id="eqzcm" d="M942.48 2968.98v-58.56h101.09v58.56z"/><path id="eqzcaW" d="M1039.5 2953.46l-12.04-43.52h19.4z"/><path id="eqzcaY" d="M953.7 2942.9c0 3.47 8.36 8.5 18.18 12.92 5.7 2.56 4.92 8.5 7.4 8.5 6.75 0-41.21 19.5-41.21 19.5s-2.6-26.37 0-33.26c2.83-7.5 15.63-9.57 15.63-7.66z"/><path id="eqzcba" d="M925.07 2973.34v-33.88h49.34v33.88z"/><path id="eqzcbc" d="M844.3 2967.05v-103.09h90.44v103.09z"/><path id="eqzcbe" d="M904.04 2794.35l-24.15 4.55v1.81l25.01-1.9z"/><path id="eqzcbf" d="M910.46 2803.81c-2.78.3-5.42-3.03-5.88-7.4-.46-4.4 1.43-8.19 4.22-8.48 2.78-.3 5.42 3.03 5.88 7.4.46 4.4-1.43 8.19-4.22 8.48z"/><path id="eqzcbg" d="M923.93 2796c-2.53.26-4.91-2.74-5.33-6.7-.41-3.97 1.3-7.4 3.82-7.67 2.52-.27 4.9 2.73 5.32 6.7.42 3.97-1.3 7.4-3.81 7.67z"/><path id="eqzcbh" d="M914.17 2793.8c0-1.1 3.11-3.28 4.68-2.18"/><path id="eqzcbi" d="M825.43 2953.5v-209.07h102.54v209.07z"/><path id="eqzcbl" d="M940.52 3009.56l64.36-11.06c35.52 22.21 52.93 33.39 52.22 33.53-1 .2-72.07 12.64-76.87 13.93.45-1.15-12.79-13.28-39.71-36.4z"/><path id="eqzcbn" d="M978.73 2992.39l67.25-4.53 36.98 32.32-83.8 5.79z"/><path id="eqzcbq" d="M1009 3029v-120h239v120zm181.53-37.98v-58.07h-158.16v58.07z"/><path id="eqzcbv" d="M1014 3012v-146h148v146zm124.17-11.98v-118.57h-112.21v118.57z"/><path id="eqzcby" d="M1079.95 2942.03c4.44 2.17 9.12 2.16 11.05-1.8 1.94-3.96-1.55-8.45-5.99-10.61-4.44-2.17-8.64-2.16-10.57 1.8-1.94 3.96 1.07 8.44 5.5 10.61z"/><path id="eqzcbz" d="M1050.6 2693.67l15.78-.09-.2 11.13-15.51-.2z"/><path id="eqzcbA" d="M1076.18 2693.62h14.38l-.1 11.13-14.16-.3z"/><path id="eqzcbB" d="M1066.28 2698.46h9.67"/><path id="eqzcbC" d="M1039.58 2690.21l11.79 5.73v5.6l-10.67-7.44z"/><path id="eqzcbD" d="M920.35 2811.63c.47-.25.32.83.53 1.47.2.64.35.74.42 1.15-1.97 1.02-5.4 1.22-7.7-.14-.46-.28-.86-.5-.48-.87.38-.38.86-.14 1.37 0 1.79.54 4.63-.98 5.86-1.61z"/><path id="eqzcbE" d="M821.57 3042.55V3029h59.49v13.55z"/><path id="eqzcbG" d="M823.02 3041.57v-44.04h70.61v44.04z"/><path id="eqzcbI" d="M825.92 3008.19v-15.97h65.3v15.97z"/><path id="eqzcbL" d="M803 3027v-153h82v153zm65.97-41.4v-90.01h-44.01v90.01z"/><path id="eqzcbR" d="M780 3039v-122h98v122zm76.88-41.3v-59.05h-54.65v59.05z"/><path id="eqzcbX" d="M837 3041v-129h91v129zm68.73-42.33v-65.34h-47.89v65.34z"/><linearGradient id="eqzcp" x1="971.72" x2="1026.98" y1="2786.64" y2="2891.8" gradientUnits="userSpaceOnUse"><stop offset="0" stop-color="#cfddf3"/><stop offset="1" stop-color="#a1b8e3"/></linearGradient><linearGradient id="eqzcv" x1="1140.77" x2="1120.62" y1="2829.19" y2="2875.5" gradientUnits="userSpaceOnUse"><stop offset="0" stop-color="#cfddf3"/><stop offset="1" stop-color="#a1b8e3"/></linearGradient><linearGradient id="eqzcx" x1="1173.14" x2="1152.98" y1="2847.33" y2="2893.63" gradientUnits="userSpaceOnUse"><stop offset="0" stop-color="#cfddf3"/><stop offset="1" stop-color="#a1b8e3"/></linearGradient><linearGradient id="eqzcz" x1="1162.57" x2="1142.41" y1="2873.11" y2="2919.41" gradientUnits="userSpaceOnUse"><stop offset="0" stop-color="#cfddf3"/><stop offset="1" stop-color="#a1b8e3"/></linearGradient><linearGradient id="eqzcB" x1="1153.98" x2="1133.8" y1="2898.11" y2="2944.41" gradientUnits="userSpaceOnUse"><stop offset="0" stop-color="#cfddf3"/><stop offset="1" stop-color="#a1b8e3"/></linearGradient><linearGradient id="eqzcD" x1="1171.48" x2="1151.33" y1="2816.76" y2="2863.06" gradientUnits="userSpaceOnUse"><stop offset="0" stop-color="#cfddf3"/><stop offset="1" stop-color="#a1b8e3"/></linearGradient><linearGradient id="eqzcF" x1="1126.69" x2="1106.53" y1="2856.46" y2="2902.77" gradientUnits="userSpaceOnUse"><stop offset="0" stop-color="#cfddf3"/><stop offset="1" stop-color="#a1b8e3"/></linearGradient><linearGradient id="eqzcH" x1="1116.12" x2="1095.96" y1="2883.81" y2="2930.12" gradientUnits="userSpaceOnUse"><stop offset="0" stop-color="#cfddf3"/><stop offset="1" stop-color="#a1b8e3"/></linearGradient><linearGradient id="eqzcN" x1="1214.11" x2="1273.71" y1="2893.86" y2="2877.53" gradientUnits="userSpaceOnUse"><stop offset="0" stop-color="#bfd5f8"/><stop offset="1" stop-color="#fff"/></linearGradient><linearGradient id="eqzcO" x1="1217.96" x2="1198.04" y1="2838.67" y2="2866.88" gradientUnits="userSpaceOnUse"><stop offset="0" stop-color="#5d6faa"/><stop offset="1" stop-color="#90aadb"/></linearGradient><linearGradient id="eqzcR" x1="1217.34" x2="1217.34" y1="2827.23" y2="2874.92" gradientUnits="userSpaceOnUse"><stop offset="0" stop-color="#cfddf3"/><stop offset="1" stop-color="#a1b8e3" stop-opacity="0"/></linearGradient><radialGradient id="eqzcT" cx="1184.55" cy="2817.58" r="22.89" gradientUnits="userSpaceOnUse"><stop offset="0" stop-color="#e1edff"/><stop offset="1" stop-color="#a1b8e3"/></radialGradient><linearGradient id="eqzcV" x1="1183.62" x2="1190.93" y1="2764.78" y2="2808.85" gradientUnits="userSpaceOnUse"><stop offset="0" stop-color="#2d6dc0"/><stop offset="1" stop-color="#143b8c"/></linearGradient><linearGradient id="eqzcW" x1="1216.23" x2="1221.64" y1="2804.06" y2="2848.41" gradientUnits="userSpaceOnUse"><stop offset="0" stop-color="#174293" stop-opacity="0"/><stop offset="1" stop-color="#051e4b"/></linearGradient><linearGradient id="eqzcY" x1="1169.44" x2="1195.09" y1="2835.08" y2="2857.51" gradientUnits="userSpaceOnUse"><stop offset="0" stop-color="#2d6dc0"/><stop offset="1" stop-color="#143b8c"/></linearGradient><linearGradient id="eqzcZ" x1="1174.91" x2="1165.09" y1="2930.29" y2="2955.02" gradientUnits="userSpaceOnUse"><stop offset="0" stop-color="#2e7de7" stop-opacity="0"/><stop offset="1" stop-color="#00357e" stop-opacity=".5"/></linearGradient><filter id="eqzcab" width="200%" height="200%" x="-50%" y="-50%"><feGaussianBlur in="SourceGraphic" result="FeGaussianBlur1189Out" stdDeviation="13.5 13.5"/></filter><mask id="eqzcac"><use fill="#fff" xlink:href="#eqzca"/></mask><linearGradient id="eqzcaf" x1="1205" x2="1205" y1="2880.73" y2="2852.99" gradientUnits="userSpaceOnUse"><stop offset="0" stop-color="#70b8f9" stop-opacity=".28"/><stop offset="1" stop-color="#3d82f0"/></linearGradient><linearGradient id="eqzcah" x1="1204.11" x2="1230.73" y1="2936.03" y2="2955.64" gradientUnits="userSpaceOnUse"><stop offset="0" stop-color="#3d82f0" stop-opacity="0"/><stop offset="1" stop-color="#3d82f0"/></linearGradient><linearGradient id="eqzcaj" x1="1136.44" x2="1166.77" y1="2912.44" y2="2937.48" gradientUnits="userSpaceOnUse"><stop offset="0" stop-color="#3d82f0" stop-opacity="0"/><stop offset="1" stop-color="#3d82f0"/></linearGradient><linearGradient id="eqzcal" x1="1037.65" x2="1063.39" y1="2708.22" y2="2742.53" gradientUnits="userSpaceOnUse"><stop offset="0" stop-color="#00224e"/><stop offset="1" stop-color="#113275"/></linearGradient><radialGradient id="eqzcan" cx="1083.54" cy="2718.26" r="38.09" gradientUnits="userSpaceOnUse"><stop offset="0" stop-color="#2d6dc0"/><stop offset="1" stop-color="#143b8c"/></radialGradient><linearGradient id="eqzcap" x1="1088.93" x2="1058" y1="2656.1" y2="2689.8" gradientUnits="userSpaceOnUse"><stop offset="0" stop-color="#fff"/><stop offset="1" stop-color="#dde9ff"/></linearGradient><linearGradient id="eqzcat" x1="1151.71" x2="1061.11" y1="2761.26" y2="2789.57" gradientUnits="userSpaceOnUse"><stop offset="0" stop-color="#fff"/><stop offset="1" stop-color="#fff"/></linearGradient><filter id="eqzcav" width="200%" height="200%" x="-50%" y="-50%"><feGaussianBlur in="SourceGraphic" result="FeGaussianBlur1262Out" stdDeviation="11.5 11.5"/></filter><mask id="eqzcaw"><use fill="#fff" xlink:href="#eqzcb"/></mask><linearGradient id="eqzcaz" x1="992.88" x2="1020.44" y1="2896.19" y2="2789.26" gradientUnits="userSpaceOnUse"><stop offset="0" stop-color="#eaf0f7" stop-opacity=".12"/><stop offset="1" stop-color="#d1dded"/></linearGradient><linearGradient id="eqzcaB" x1="1080.94" x2="1001.73" y1="2783.04" y2="2811.57" gradientUnits="userSpaceOnUse"><stop offset="0" stop-color="#95c4ff" stop-opacity=".12"/><stop offset="1" stop-color="#497ec5"/></linearGradient><linearGradient id="eqzcaD" x1="1042.43" x2="1050.86" y1="2738.41" y2="2738.41" gradientUnits="userSpaceOnUse"><stop offset="0" stop-color="#b1c6e7"/><stop offset="1" stop-color="#e5effd"/></linearGradient><linearGradient id="eqzcaF" x1="863.11" x2="818.77" y1="2888.66" y2="2876.63" gradientUnits="userSpaceOnUse"><stop offset="0" stop-color="#98b1d9"/><stop offset="1" stop-color="#fff"/></linearGradient><linearGradient id="eqzcaI" x1="953.82" x2="994.09" y1="2927.39" y2="2900.22" gradientUnits="userSpaceOnUse"><stop offset="0" stop-color="#002d65"/><stop offset=".88" stop-color="#3a74c6"/><stop offset="1" stop-color="#3062aa"/></linearGradient><radialGradient id="eqzcaK" cx="945.06" cy="2891.7" r="50.37" gradientUnits="userSpaceOnUse"><stop offset="0" stop-color="#2d6dc0"/><stop offset="1" stop-color="#143b8c"/></radialGradient><linearGradient id="eqzcaM" x1="1039.28" x2="1025.13" y1="2958.34" y2="3003.02" gradientUnits="userSpaceOnUse"><stop offset="0" stop-color="#0041b2"/><stop offset="1" stop-color="#2d64d7" stop-opacity="0"/></linearGradient><linearGradient id="eqzcaN" x1="895.55" x2="895.55" y1="2813.11" y2="2843.83" gradientUnits="userSpaceOnUse"><stop offset="0" stop-color="#4376c9"/><stop offset="1" stop-color="#d6e3fa"/></linearGradient><linearGradient id="eqzcaO" x1="889.08" x2="902.3" y1="2832.01" y2="2832.01" gradientUnits="userSpaceOnUse"><stop offset="0" stop-color="#133b8b" stop-opacity=".67"/><stop offset="1" stop-color="#a9bfe7" stop-opacity="0"/><stop offset="1" stop-color="#a9bfe7" stop-opacity="0"/></linearGradient><linearGradient id="eqzcaR" x1="897.61" x2="897.61" y1="2817.42" y2="2847.79" gradientUnits="userSpaceOnUse"><stop offset="0" stop-color="#699df3"/><stop offset="1" stop-color="#8597b5" stop-opacity="0"/></linearGradient><linearGradient id="eqzcaT" x1="876.2" x2="909.19" y1="2800.53" y2="2806.04" gradientUnits="userSpaceOnUse"><stop offset="0" stop-color="#7798f6"/><stop offset="1" stop-color="#e5effd"/></linearGradient><linearGradient id="eqzcaU" x1="943.43" x2="1007.41" y1="2968.3" y2="2933.65" gradientUnits="userSpaceOnUse"><stop offset="0" stop-color="#ff7f31"/><stop offset="1" stop-color="#ffd25f"/></linearGradient><linearGradient id="eqzcaX" x1="1041.58" x2="1027.46" y1="2922.09" y2="2931.7" gradientUnits="userSpaceOnUse"><stop offset="0" stop-color="#ff7f31"/><stop offset="1" stop-color="#ffc83a" stop-opacity="0"/></linearGradient><linearGradient id="eqzcaZ" x1="958.44" x2="980.11" y1="2971.35" y2="2957.46" gradientUnits="userSpaceOnUse"><stop offset="0" stop-color="#ff7f31"/><stop offset="1" stop-color="#ffc83a" stop-opacity="0"/></linearGradient><linearGradient id="eqzcbb" x1="946.48" x2="933.13" y1="2947.02" y2="2965.13" gradientUnits="userSpaceOnUse"><stop offset="0" stop-color="#ecf2fb"/><stop offset="1" stop-color="#d5e1f5"/></linearGradient><linearGradient id="eqzcbd" x1="920.6" x2="897.23" y1="2930.51" y2="2953" gradientUnits="userSpaceOnUse"><stop offset="0" stop-color="#3d82f0"/><stop offset="1" stop-color="#143b8c"/></linearGradient><linearGradient id="eqzcbj" x1="942.41" x2="842.42" y1="2860.54" y2="2868.07" gradientUnits="userSpaceOnUse"><stop offset="0" stop-color="#70b8f9"/><stop offset="1" stop-color="#0457dc"/></linearGradient><linearGradient id="eqzcbk" x1="899.21" x2="859.41" y1="2873.77" y2="2926.59" gradientUnits="userSpaceOnUse"><stop offset="0" stop-color="#3d82f0" stop-opacity="0"/><stop offset="1" stop-color="#0049bd"/></linearGradient><linearGradient id="eqzcbm" x1="998.82" x2="998.82" y1="2998.5" y2="3045.96" gradientUnits="userSpaceOnUse"><stop offset="0" stop-color="#b2c7e8"/><stop offset="1" stop-color="#d6e3fa"/></linearGradient><linearGradient id="eqzcbo" x1="1030.84" x2="1030.84" y1="2987.86" y2="3025.96" gradientUnits="userSpaceOnUse"><stop offset="0" stop-color="#c6d6ee"/><stop offset="1" stop-color="#e5effd"/></linearGradient><linearGradient id="eqzcbp" x1="1112.72" x2="1152.31" y1="2952.76" y2="2952.76" gradientUnits="userSpaceOnUse"><stop offset="0" stop-color="#002b64"/><stop offset="1" stop-color="#0f3177"/></linearGradient><filter id="eqzcbr" width="200%" height="200%" x="-50%" y="-50%"><feGaussianBlur in="SourceGraphic" result="FeGaussianBlur1457Out" stdDeviation="12 12"/></filter><mask id="eqzcbs"><use fill="#fff" xlink:href="#eqzcc"/></mask><linearGradient id="eqzcbt" x1="1125.4" x2="1051.95" y1="2912.11" y2="2965.85" gradientUnits="userSpaceOnUse"><stop offset="0" stop-color="#dbe9ff"/><stop offset=".44" stop-color="#a7bde4"/><stop offset="1" stop-color="#5876af"/></linearGradient><linearGradient id="eqzcbu" x1="1107.01" x2="1102.15" y1="2966.72" y2="2979.53" gradientUnits="userSpaceOnUse"><stop offset="0" stop-color="#869fce" stop-opacity="0"/><stop offset="1" stop-color="#4975c1" stop-opacity=".23"/></linearGradient><filter id="eqzcbw" width="200%" height="200%" x="-50%" y="-50%"><feGaussianBlur in="SourceGraphic" result="FeGaussianBlur1474Out" stdDeviation="6 6"/></filter><mask id="eqzcbx"><use fill="#fff" xlink:href="#eqzcd"/></mask><linearGradient id="eqzcbF" x1="880.09" x2="822.05" y1="3035.77" y2="3035.77" gradientUnits="userSpaceOnUse"><stop offset="0" stop-color="#d9e5f6" stop-opacity=".71"/><stop offset="1" stop-color="#b2c6ea"/></linearGradient><linearGradient id="eqzcbH" x1="855.19" x2="877.64" y1="3050.57" y2="3017.88" gradientUnits="userSpaceOnUse"><stop offset="0" stop-color="#acc5e9"/><stop offset=".63" stop-color="#d3e3fb"/><stop offset="1" stop-color="#eaf2ff"/></linearGradient><linearGradient id="eqzcbJ" x1="876.06" x2="852.4" y1="2992.7" y2="3014.65" gradientUnits="userSpaceOnUse"><stop offset="0" stop-color="#86a8d9"/><stop offset="1" stop-color="#bcd0f2"/></linearGradient><linearGradient id="eqzcbK" x1="838.18" x2="854.69" y1="2910.54" y2="2994.63" gradientUnits="userSpaceOnUse"><stop offset="0" stop-color="#b1ffbe"/><stop offset=".44" stop-color="#5cdb8e"/><stop offset="1" stop-color="#149654"/></linearGradient><filter id="eqzcbM" width="200%" height="200%" x="-50%" y="-50%"><feGaussianBlur in="SourceGraphic" result="FeGaussianBlur1557Out" stdDeviation="11 11"/></filter><mask id="eqzcbN"><use fill="#fff" xlink:href="#eqzce"/></mask><clipPath id="eqzcbP"><use fill="#fff" xlink:href="#eqzcf"/></clipPath><linearGradient id="eqzcbQ" x1="844.62" x2="850.85" y1="2944.16" y2="3000.51" gradientUnits="userSpaceOnUse"><stop offset="0" stop-color="#b1ffbe"/><stop offset=".44" stop-color="#5cdb8e"/><stop offset="1" stop-color="#149654"/></linearGradient><filter id="eqzcbS" width="200%" height="200%" x="-50%" y="-50%"><feGaussianBlur in="SourceGraphic" result="FeGaussianBlur1583Out" stdDeviation="11 11"/></filter><mask id="eqzcbT"><use fill="#fff" xlink:href="#eqzcg"/></mask><clipPath id="eqzcbV"><use fill="#fff" xlink:href="#eqzch"/></clipPath><linearGradient id="eqzcbW" x1="875.17" x2="895.4" y1="2947.43" y2="3008.1" gradientUnits="userSpaceOnUse"><stop offset="0" stop-color="#b1ffbe"/><stop offset=".44" stop-color="#5cdb8e"/><stop offset="1" stop-color="#149654"/></linearGradient><filter id="eqzcbY" width="200%" height="200%" x="-50%" y="-50%"><feGaussianBlur in="SourceGraphic" result="FeGaussianBlur1609Out" stdDeviation="11 11"/></filter><mask id="eqzcbZ"><use fill="#fff" xlink:href="#eqzci"/></mask><clipPath id="eqzccb"><use fill="#fff" xlink:href="#eqzcj"/></clipPath><clipPath id="eqzcP"><use xlink:href="#eqzck"/></clipPath><clipPath id="eqzcad"><use xlink:href="#eqzca"/></clipPath><clipPath id="eqzcax"><use xlink:href="#eqzcb"/></clipPath><clipPath id="eqzcaP"><use xlink:href="#eqzcl"/></clipPath><clipPath id="eqzcaV"><use xlink:href="#eqzcm"/></clipPath><clipPath id="eqzcbO"><use xlink:href="#eqzce"/></clipPath><clipPath id="eqzcbU"><use xlink:href="#eqzcg"/></clipPath><clipPath id="eqzcca"><use xlink:href="#eqzci"/></clipPath></defs><g><g transform="translate(-771 -2646)"><use fill="#99e2e0" xlink:href="#eqzcn"/></g><g opacity=".3" transform="scale(-1 1) rotate(-31 -4385.08 3730.2)"><g opacity=".3"><use fill="url(#eqzcp)" xlink:href="#eqzco"/></g><g opacity=".3"><use fill="#fff" fill-opacity="0" stroke="#000" stroke-linecap="round" stroke-miterlimit="50" stroke-width="6" xlink:href="#eqzcq"/></g><g opacity=".3"><use fill="#fff" fill-opacity="0" stroke="#000" stroke-linecap="round" stroke-miterlimit="50" stroke-width="6" xlink:href="#eqzcr"/></g><g opacity=".3"><use fill="#fff" fill-opacity="0" stroke="#000" stroke-linecap="round" stroke-miterlimit="50" stroke-width="6" xlink:href="#eqzcs"/></g></g><g opacity=".3" transform="rotate(-1 -150859.78 45754.42)"><g opacity=".3"><use fill="#fff" fill-opacity="0" stroke="#000" stroke-linecap="round" stroke-miterlimit="50" stroke-width="6" xlink:href="#eqzct"/></g><g opacity=".3"><use fill="url(#eqzcv)" xlink:href="#eqzcu"/></g><g opacity=".3"><use fill="url(#eqzcx)" xlink:href="#eqzcw"/></g><g opacity=".3"><use fill="url(#eqzcz)" xlink:href="#eqzcy"/></g><g opacity=".3"><use fill="url(#eqzcB)" xlink:href="#eqzcA"/></g><g opacity=".3"><use fill="url(#eqzcD)" xlink:href="#eqzcC"/></g><g opacity=".3"><use fill="url(#eqzcF)" xlink:href="#eqzcE"/></g><g opacity=".3"><use fill="url(#eqzcH)" xlink:href="#eqzcG"/></g></g><g transform="translate(-771 -2646)"><g opacity=".47"><use fill="#fff" fill-opacity="0" stroke="#000" stroke-linecap="round" stroke-linejoin="round" stroke-miterlimit="50" stroke-width="8" xlink:href="#eqzcI"/></g><g opacity=".47"><use fill="#fff" fill-opacity="0" stroke="#000" stroke-linecap="round" stroke-linejoin="round" stroke-miterlimit="50" stroke-width="8" xlink:href="#eqzcJ"/></g><g opacity=".47"><use fill="#fff" fill-opacity="0" stroke="#000" stroke-linecap="round" stroke-linejoin="round" stroke-miterlimit="50" stroke-width="8" xlink:href="#eqzcK"/></g><g opacity=".47"><use fill="#fff" fill-opacity="0" stroke="#000" stroke-linecap="round" stroke-linejoin="round" stroke-miterlimit="50" stroke-width="8" xlink:href="#eqzcL"/></g></g><g transform="translate(-771 -2646)"><g><use fill="url(#eqzcN)" xlink:href="#eqzcM"/></g><g><g><use fill="url(#eqzcO)" xlink:href="#eqzck"/></g><g clip-path="url(#eqzcP)"><use fill="url(#eqzcR)" xlink:href="#eqzcQ"/></g></g><g><use fill="url(#eqzcT)" xlink:href="#eqzcS"/></g><g><use fill="url(#eqzcV)" xlink:href="#eqzcU"/><use fill="url(#eqzcW)" xlink:href="#eqzcU"/></g><g><use fill="url(#eqzcY)" xlink:href="#eqzcX"/></g><g><g><use fill="#3d82f0" xlink:href="#eqzca"/><use fill="url(#eqzcZ)" xlink:href="#eqzca"/><use fill="#174192" fill-opacity=".2" stroke="#174192" stroke-opacity=".2" stroke-width="0" filter="url(#eqzcab)" mask="url(&quot;#eqzcac&quot;)" xlink:href="#eqzcaa"/></g><g clip-path="url(#eqzcad)" opacity=".59"><use fill="url(#eqzcaf)" xlink:href="#eqzcae"/></g><g clip-path="url(#eqzcad)" opacity=".55"><use fill="url(#eqzcah)" xlink:href="#eqzcag"/></g><g clip-path="url(#eqzcad)" opacity=".55"><use fill="url(#eqzcaj)" xlink:href="#eqzcai"/></g></g></g><g transform="translate(-771 -2646)"><g><use fill="url(#eqzcal)" xlink:href="#eqzcak"/></g><g><use fill="url(#eqzcan)" xlink:href="#eqzcam"/></g><g><use fill="url(#eqzcap)" xlink:href="#eqzcao"/></g><g><use fill="#3d82f0" xlink:href="#eqzcaq"/></g><g><use fill="#113275" xlink:href="#eqzcar"/></g><g><use fill="#143b8c" xlink:href="#eqzcas"/></g><g><g><use fill="url(#eqzcat)" xlink:href="#eqzcb"/><use fill="#baccee" stroke="#baccee" stroke-width="0" filter="url(#eqzcav)" mask="url(&quot;#eqzcaw&quot;)" xlink:href="#eqzcau"/></g><g clip-path="url(#eqzcax)"><use fill="url(#eqzcaz)" xlink:href="#eqzcay"/></g><g clip-path="url(#eqzcax)" opacity=".16"><use fill="url(#eqzcaB)" xlink:href="#eqzcaA"/></g></g><g><use fill="url(#eqzcaD)" xlink:href="#eqzcaC"/></g></g><g transform="translate(-771 -2646)"><use fill="url(#eqzcaF)" xlink:href="#eqzcaE"/></g><g transform="translate(-771 -2646)"><use fill="#316eea" xlink:href="#eqzcaG"/></g><g transform="translate(-771 -2646)"><use fill="url(#eqzcaI)" xlink:href="#eqzcaH"/></g><g transform="translate(-771 -2646)"><use fill="url(#eqzcaK)" xlink:href="#eqzcaJ"/></g><g opacity=".2" transform="translate(-771 -2646)"><use fill="url(#eqzcaM)" xlink:href="#eqzcaL"/></g><g transform="translate(-771 -2646)"><g><use fill="url(#eqzcaN)" xlink:href="#eqzcl"/><use fill="url(#eqzcaO)" xlink:href="#eqzcl"/></g><g clip-path="url(#eqzcaP)" opacity=".72"><use fill="url(#eqzcaR)" xlink:href="#eqzcaQ"/></g></g><g transform="translate(-771 -2646)"><use fill="url(#eqzcaT)" xlink:href="#eqzcaS"/></g><g transform="translate(-771 -2646)"><g><use fill="url(#eqzcaU)" xlink:href="#eqzcm"/></g><g clip-path="url(#eqzcaV)" opacity=".46"><use fill="url(#eqzcaX)" xlink:href="#eqzcaW"/></g><g clip-path="url(#eqzcaV)" opacity=".53"><use fill="url(#eqzcaZ)" xlink:href="#eqzcaY"/></g></g><g transform="translate(-771 -2646)"><use fill="url(#eqzcbb)" xlink:href="#eqzcba"/></g><g transform="translate(-771 -2646)"><use fill="url(#eqzcbd)" xlink:href="#eqzcbc"/></g><g transform="translate(-771 -2646)"><g><use fill="#143b8c" xlink:href="#eqzcbe"/></g><g><use xlink:href="#eqzcbf"/><use fill="#fff" fill-opacity="0" stroke="#143b8c" stroke-miterlimit="50" stroke-width="4" xlink:href="#eqzcbf"/></g><g><use xlink:href="#eqzcbg"/><use fill="#fff" fill-opacity="0" stroke="#143b8c" stroke-miterlimit="50" stroke-width="4" xlink:href="#eqzcbg"/></g><g><use xlink:href="#eqzcbh"/><use fill="#fff" fill-opacity="0" stroke="#143b8c" stroke-miterlimit="50" stroke-width="4" xlink:href="#eqzcbh"/></g></g><g transform="translate(-771 -2646)"><use fill="url(#eqzcbj)" xlink:href="#eqzcbi"/><use fill="url(#eqzcbk)" xlink:href="#eqzcbi"/></g><g transform="translate(-771 -2646)"><g><use fill="url(#eqzcbm)" xlink:href="#eqzcbl"/></g><g><use fill="url(#eqzcbo)" xlink:href="#eqzcbn"/></g></g><g transform="translate(-771 -2646)"><g><use fill="url(#eqzcbp)" xlink:href="#eqzcc"/><use fill="#3d82f0" fill-opacity=".78" stroke="#3d82f0" stroke-opacity=".78" stroke-width="0" filter="url(#eqzcbr)" mask="url(&quot;#eqzcbs&quot;)" xlink:href="#eqzcbq"/></g><g><use fill="url(#eqzcbt)" xlink:href="#eqzcd"/><use fill="url(#eqzcbu)" xlink:href="#eqzcd"/><use fill="#fff" fill-opacity=".5" stroke="#fff" stroke-opacity=".5" stroke-width="0" filter="url(#eqzcbw)" mask="url(&quot;#eqzcbx&quot;)" xlink:href="#eqzcbv"/></g><g><use fill="#d6e3fa" xlink:href="#eqzcby"/></g></g><g transform="translate(-771 -2646)"><g><use fill="#fff" fill-opacity="0" stroke="#e5effd" stroke-miterlimit="50" stroke-width="5" xlink:href="#eqzcbz"/></g><g><use fill="#fff" fill-opacity="0" stroke="#e5effd" stroke-miterlimit="50" stroke-width="5" xlink:href="#eqzcbA"/></g><g><use xlink:href="#eqzcbB"/><use fill="#fff" fill-opacity="0" stroke="#e5effd" stroke-miterlimit="50" stroke-width="4" xlink:href="#eqzcbB"/></g><g><use fill="#e5effd" xlink:href="#eqzcbC"/></g></g><g transform="translate(-771 -2646)"><use fill="#1a418f" xlink:href="#eqzcbD"/></g><g transform="translate(-771 -2646)"><g><g opacity=".7"><use fill="url(#eqzcbF)" xlink:href="#eqzcbE"/></g><g><g><use fill="url(#eqzcbH)" xlink:href="#eqzcbG"/></g></g><g><g><use fill="url(#eqzcbJ)" xlink:href="#eqzcbI"/></g></g></g><g><g><g><g><g><use fill="url(#eqzcbK)" xlink:href="#eqzce"/><use fill="#38c79c" stroke="#38c79c" stroke-width="0" filter="url(#eqzcbM)" mask="url(&quot;#eqzcbN&quot;)" xlink:href="#eqzcbL"/></g><g clip-path="url(#eqzcbO)" opacity=".5"><use xlink:href="#eqzcf"/><use fill="#fff" fill-opacity="0" stroke="#489c71" stroke-miterlimit="50" stroke-width="6" clip-path="url(&quot;#eqzcbP&quot;)" xlink:href="#eqzcf"/></g></g></g><g><g><g><use fill="url(#eqzcbQ)" xlink:href="#eqzcg"/><use fill="#38c79c" stroke="#38c79c" stroke-width="0" filter="url(#eqzcbS)" mask="url(&quot;#eqzcbT&quot;)" xlink:href="#eqzcbR"/></g><g clip-path="url(#eqzcbU)" opacity=".5"><use xlink:href="#eqzch"/><use fill="#fff" fill-opacity="0" stroke="#489c71" stroke-miterlimit="50" stroke-width="6" clip-path="url(&quot;#eqzcbV&quot;)" xlink:href="#eqzch"/></g></g></g><g><g><g><use fill="url(#eqzcbW)" xlink:href="#eqzci"/><use fill="#38c79c" stroke="#38c79c" stroke-width="0" filter="url(#eqzcbY)" mask="url(&quot;#eqzcbZ&quot;)" xlink:href="#eqzcbX"/></g><g clip-path="url(#eqzcca)" opacity=".5"><use xlink:href="#eqzcj"/><use fill="#fff" fill-opacity="0" stroke="#489c71" stroke-miterlimit="50" stroke-width="6" clip-path="url(&quot;#eqzccb&quot;)" xlink:href="#eqzcj"/></g></g></g></g></g></g></g></svg>